<svg xmlns="http://www.w3.org/2000/svg" xmlns:xlink="http://www.w3.org/1999/xlink" viewBox="0 0 715.84 94.35"><defs><style>.cls-1,.cls-2{fill:none;stroke:#035e97;stroke-miterlimit:10;}.cls-1{stroke-width:0.5px;}.cls-3{fill:#035e97;}.cls-4{fill:#b53e4b;}.cls-5{fill:#ecc038;}.cls-6{clip-path:url(#clip-path);}.cls-7{fill:#d09027;}.cls-8{clip-path:url(#clip-path-2);}.cls-9{clip-path:url(#clip-path-3);}.cls-10{clip-path:url(#clip-path-4);}.cls-11{clip-path:url(#clip-path-5);}</style><clipPath id="clip-path" transform="translate(7.74)"><polyline class="cls-1" points="494.62 47.29 510.66 80.38 527.75 46.06"/></clipPath><clipPath id="clip-path-2" transform="translate(7.74)"><path class="cls-2" d="M652.36,8.14c-31,3.27-25.41,66.54,11.3,56.9,29.18-7.72,23-64.08-11.3-56.9"/></clipPath><clipPath id="clip-path-3" transform="translate(7.74)"><polyline class="cls-2" points="231.59 54.24 250.09 88.09 266.24 52.89"/></clipPath><clipPath id="clip-path-4" transform="translate(7.74)"><path class="cls-2" d="M101.3,53.69l8.91,23.5,14.45-5.26c-3.32-9-9.9-23.68-9.9-23.68"/></clipPath><clipPath id="clip-path-5" transform="translate(7.74)"><path class="cls-2" d="M21.37,1.88C-9.6,5.14-4,68.42,32.67,58.78c29.18-7.72,23-64.08-11.3-56.9"/></clipPath></defs><g id="Layer_2" data-name="Layer 2"><g id="OBJECTS"><path class="cls-3" d="M593.77,89.55a66.63,66.63,0,0,1-8.52-10.79,30.2,30.2,0,0,1-4.46-10.4,7.76,7.76,0,0,1,3-8.08c2.41-1.74,5.06-.72,6.92,1.29a11.61,11.61,0,0,1,2.92,9.69l2.41.67a12.19,12.19,0,0,1,5-8.42c2-1.34,4.81-2.11,7.12-1,2.63,1.28,3.34,4.57,2.78,7.22-.85,4-3.63,7.42-6.42,10.27a55.47,55.47,0,0,1-12.27,9.34,1.25,1.25,0,0,0,1.26,2.16,58.22,58.22,0,0,0,12.64-9.59c3.21-3.25,6.48-7.31,7.28-11.94.61-3.46-.38-7.34-3.48-9.32-2.73-1.74-6.24-1.35-9,0a14.25,14.25,0,0,0-7.33,10.57c-.26,1.57,2.09,2.26,2.41.67a14.1,14.1,0,0,0-2.5-10.81c-2-2.72-5.16-4.95-8.68-4.08s-6.33,4.66-6.68,8.26c-.38,4,1.3,8.07,3.11,11.54A63.67,63.67,0,0,0,592,91.32c1.11,1.16,2.88-.61,1.76-1.77Z" transform="translate(7.74)"/><path class="cls-4" d="M593.36,29.82A26.21,26.21,0,0,0,600,26.3c1.53-1.17,3.2-2.7,3.6-4.68a4.69,4.69,0,0,0-1.87-4.76,4.35,4.35,0,0,0-4.25.14,6.35,6.35,0,0,0-3.19,4,1.25,1.25,0,0,0,2.41.66A6.76,6.76,0,0,0,596,16a4.65,4.65,0,0,0-4.14-2.21,4.31,4.31,0,0,0-3.59,3.35,10.39,10.39,0,0,0,.49,5.65A24.68,24.68,0,0,0,592,29.25a1.28,1.28,0,0,0,1.71.45A1.26,1.26,0,0,0,594.1,28a25.5,25.5,0,0,1-2.45-4.39,12.66,12.66,0,0,1-1.14-4.47,4.1,4.1,0,0,1,.23-1.65,1.94,1.94,0,0,1,.88-1l.16-.09s-.16.06,0,0,.41-.08.17-.05a2,2,0,0,1,.34,0c.24,0,.07,0,0,0l.23.05.17,0c.19.06-.16-.07,0,0l.32.17s.33.24.21.14a3.15,3.15,0,0,1,.37.36,4.17,4.17,0,0,1,.73,3.91l2.41.66c0-.13.08-.26.11-.39s0,0,.08-.19a5.73,5.73,0,0,1,.45-.75c.09-.12,0,0,0,0l.15-.18.25-.26a2.83,2.83,0,0,1,.52-.43,5.9,5.9,0,0,1,.69-.4l0,0,.2-.08.41-.11a.9.9,0,0,1,.16,0c.18,0-.22,0,0,0H600c.23,0-.17-.06.06,0s.25.06.37.11c-.28-.11,0,0,.09.08s-.15-.14,0,0l.11.1.15.16s-.11-.15,0,0a2.13,2.13,0,0,1,.23.42,1.23,1.23,0,0,1,.09.26,4.87,4.87,0,0,1,.12.52,1.49,1.49,0,0,1,0,.61,3.7,3.7,0,0,1-.75,1.44,10.11,10.11,0,0,1-1.8,1.72,23.53,23.53,0,0,1-6,3.17,1.29,1.29,0,0,0-.87,1.54,1.26,1.26,0,0,0,1.54.87Z" transform="translate(7.74)"/><path class="cls-4" d="M451.47,42.92l11.66,28.94,1.64,4.08a1.27,1.27,0,0,0,2.29.3l15.37-25.12,2.21-3.61c.84-1.37-1.32-2.63-2.16-1.26L467.11,71.37,464.9,75l2.29.3L455.52,46.34l-1.64-4.08c-.59-1.48-3-.83-2.41.66Z" transform="translate(7.74)"/><path class="cls-5" d="M538.33,45.89,556,71.18l2.53,3.63a1.27,1.27,0,0,0,2.29-.3l8.05-30.67L570,39.5a1.26,1.26,0,0,0-2.42-.67l-8,30.67-1.14,4.35,2.28-.3L543,48.26l-2.54-3.63c-.91-1.31-3.08-.06-2.16,1.26Z" transform="translate(7.74)"/><g class="cls-6"><path class="cls-3" d="M494.8,56.32l12.35-10.24,1.76-1.45a1.25,1.25,0,0,0-1.77-1.77L494.79,53.1,493,54.56a1.25,1.25,0,1,0,1.77,1.76Z" transform="translate(7.74)"/><path class="cls-3" d="M498.36,63.09l18.71-16.92,2.68-2.44c1.2-1.08-.57-2.84-1.76-1.76L499.28,58.89l-2.69,2.43c-1.19,1.08.58,2.84,1.77,1.77Z" transform="translate(7.74)"/><path class="cls-3" d="M501.84,70.2l22-19.4,3.08-2.72c1.21-1.06-.56-2.82-1.76-1.76l-22,19.4-3.08,2.71c-1.21,1.07.56,2.83,1.77,1.77Z" transform="translate(7.74)"/><path class="cls-3" d="M504.93,77.44l19.72-16.71,2.81-2.38c1.23-1-.54-2.8-1.76-1.77L506,73.29l-2.81,2.38c-1.23,1,.54,2.81,1.76,1.77Z" transform="translate(7.74)"/></g><polyline class="cls-1" points="502.36 47.29 518.4 80.38 535.49 46.06"/><path class="cls-3" d="M493.54,47.92l14,28.93,2,4.16a1.26,1.26,0,0,0,2.16,0l15-30,2.13-4.28c.72-1.44-1.44-2.71-2.16-1.26l-15,30-2.13,4.28h2.16l-14-28.93-2-4.16c-.7-1.45-2.86-.18-2.16,1.26Z" transform="translate(7.74)"/><path class="cls-3" d="M438.07,37.26c15.52,8.32,33.82,10,51.14,10.29,8.84.15,17.69-.12,26.54-.36,4.52-.13,9-.16,13.55-.52,5.36-.43,10.7-1.17,16-2.07,12.15-2.05,24.12-5,36.26-7.08,1.58-.28.91-2.69-.67-2.41-10.56,1.84-21,4.28-31.53,6.24-5.31,1-10.64,1.86-16,2.44-4.76.51-9.52.69-14.3.81-17.46.44-35.1,1.34-52.45-1.19-9.43-1.38-18.83-3.78-27.27-8.31-1.42-.75-2.68,1.4-1.26,2.16Z" transform="translate(7.74)"/><path class="cls-3" d="M373.48,28.05c-7,0-14.18,1.7-19.93,5.89a29.13,29.13,0,0,0-10.4,14.39c-3.76,11.24-1.07,24.59,7.3,33.1,9.75,9.91,26.53,11.43,38.59,5,11.75-6.28,16.79-20.06,14.85-32.81a32.17,32.17,0,0,0-7.82-16.78,27.34,27.34,0,0,0-17-8.59,31.61,31.61,0,0,0-5.59-.18c-1.6.08-1.61,2.58,0,2.5a26.24,26.24,0,0,1,17.83,5.24A27.9,27.9,0,0,1,400.54,50c3.23,11.19.38,24.48-9.07,31.85-5.4,4.23-12.31,5.89-19.07,5.84A28.93,28.93,0,0,1,355,82.14c-8.75-6.62-12.52-18.5-10.51-29.12a27.61,27.61,0,0,1,7.35-14.36,28.15,28.15,0,0,1,16.23-7.76,38.83,38.83,0,0,1,5.39-.35,1.25,1.25,0,0,0,0-2.5Z" transform="translate(7.74)"/><path class="cls-3" d="M373.38,33.41c-5.81,0-11.71,1.4-16.46,4.87a24.18,24.18,0,0,0-8.62,11.9c-3.12,9.29-.9,20.32,6,27.36,8.06,8.22,21.95,9.49,31.93,4.15,9.69-5.18,13.87-16.51,12.31-27a26.72,26.72,0,0,0-6.47-14A22.68,22.68,0,0,0,378,33.56a27,27,0,0,0-4.58-.15c-1.6.08-1.61,2.58,0,2.5a21.39,21.39,0,0,1,14.48,4.25,22.68,22.68,0,0,1,7.49,11.53c2.62,9.09.33,19.88-7.33,25.88-8.15,6.39-21.44,6.49-29.68.22-7.09-5.4-10.15-15.06-8.49-23.69a22.5,22.5,0,0,1,5.93-11.58,22.9,22.9,0,0,1,13.14-6.31,31.73,31.73,0,0,1,4.46-.3,1.25,1.25,0,0,0,0-2.5Z" transform="translate(7.74)"/><path class="cls-7" d="M373,37.9c-3.68,0-3.34,5.62.31,5.19,3.15-.36,2.77-5.36-.31-5.19" transform="translate(7.74)"/><path class="cls-7" d="M373,36.65a3.9,3.9,0,0,0-2.27.67,3.78,3.78,0,0,0-1.39,1.92,4.09,4.09,0,0,0,.89,4,3.81,3.81,0,0,0,6.45-3.49A3.61,3.61,0,0,0,373,36.65a1.25,1.25,0,0,0,0,2.5c.14,0,.27,0,.41,0-.38,0-.24,0-.09,0a1,1,0,0,1,.23.06c.12,0,.26.15-.09-.05l.16.08.15.1c.23.13-.22-.2-.06-.06l.25.25c.17.19-.09-.13-.07-.09l.11.16.17.31c-.2-.37-.09-.21-.05-.09a1.72,1.72,0,0,1,.07.21c0,.07.1.29.07.35s0-.37,0-.2,0,.06,0,.09,0,.14,0,.2,0,.24,0,.36.06-.34,0-.2,0,.06,0,.09a1.42,1.42,0,0,1,0,.2c0,.11-.07.22-.11.33.12-.39.1-.21,0-.09l-.11.19-.09.15c-.1.15.23-.27.06-.08a3.57,3.57,0,0,1-.28.27c-.1.09.26-.19.15-.12l-.08.06-.16.09-.17.09c-.12.06.3-.11.17-.07l-.12,0-.41.09c.41-.09.18,0,.06,0h-.57s.37.06.19,0l-.39-.1.1,0-.16-.07-.15-.09-.07,0c-.17-.11.14.11.14.11s-.22-.2-.25-.23l-.1-.12c.29.29.12.17,0,0a2.69,2.69,0,0,1-.16-.29c-.06-.11-.08-.28,0,.11l-.06-.17c0-.11-.06-.22-.09-.32s0-.3,0,0,0,0,0,0,0-.23,0-.34,0-.11,0-.16,0,.2,0,.2l0-.12c0-.12.06-.24.1-.36s.17-.32,0,.07c0,0,.05-.11.08-.17s.15-.32.21-.33-.23.28-.12.16l.07-.08.14-.13.06-.06c.13-.13-.28.2-.12.09a.91.91,0,0,0,.16-.11l.18-.09c.24-.13-.31.1-.05,0l.42-.12c.29-.06-.32,0,0,0H373a1.25,1.25,0,0,0,0-2.5Z" transform="translate(7.74)"/><path class="cls-7" d="M373,75.09c-3.68,0-3.34,5.62.31,5.2,3.15-.37,2.77-5.37-.31-5.2" transform="translate(7.74)"/><path class="cls-7" d="M373,73.84a3.88,3.88,0,0,0-2.27.67,3.83,3.83,0,0,0-1.4,1.93,4.11,4.11,0,0,0,.92,4,3.81,3.81,0,0,0,6.42-3.53A3.59,3.59,0,0,0,373,73.84a1.25,1.25,0,0,0,0,2.5c.14,0,.27,0,.41,0-.38,0-.24,0-.09,0l.23.06c.12,0,.26.15-.09,0l.16.07.15.1c.23.13-.22-.2-.06-.06l.25.25c.17.2-.09-.13-.07-.09a1.63,1.63,0,0,1,.11.17s.11.28.17.31-.13-.33-.08-.18l0,.08.06.19c0,.12.05.23.08.35s0-.34,0-.2,0,.06,0,.09,0,.14,0,.2,0,.24,0,.36.07-.37,0-.11c0,.07,0,.15,0,.22s-.05.3-.11.34.16-.33.08-.18,0,0,0,.08l-.09.17c0,.06-.07.1-.1.15-.13.2.22-.25.06-.07l-.27.26c-.13.12.16-.13.15-.11a.24.24,0,0,1-.08.06l-.16.09-.17.09c-.16.08.18-.08.17-.07a.58.58,0,0,1-.14,0,2.05,2.05,0,0,0-.41.1s.35,0,.17,0h-.64c-.18,0,.21,0,.19,0s-.32-.07-.41-.1-.27-.15.09,0l-.16-.07-.15-.09,0,0c.2.16,0,0,0,0l-.12-.12-.11-.13c-.09-.1.19.27.12.16l-.06-.09a2.61,2.61,0,0,1-.17-.28l0-.08c-.08-.14.09.19.07.19a.93.93,0,0,1-.07-.2l-.09-.32a1.11,1.11,0,0,1,0-.17s0,.36,0,.21v-.1c0-.11,0-.23,0-.34s0-.11,0-.16c0-.22-.07.36,0,.1s.06-.26.1-.38l0-.08c.05-.19-.07.17-.08.16s.07-.14.08-.16.16-.33.21-.34-.22.28-.11.16a.27.27,0,0,1,.07-.08l.13-.14c.1-.09.3-.18-.06,0l.17-.11a1,1,0,0,1,.17-.1c.25-.13-.31.11,0,0a3.25,3.25,0,0,1,.42-.11c.29-.07-.32,0,0,0H373a1.25,1.25,0,0,0,0-2.5Z" transform="translate(7.74)"/><path class="cls-7" d="M352.21,59.05a2.55,2.55,0,1,0,5.07-.32c-.35-3.23-5.24-2.84-5.07.32" transform="translate(7.74)"/><path class="cls-7" d="M351,59.05a4,4,0,0,0,.68,2.32,3.7,3.7,0,0,0,1.88,1.4,3.94,3.94,0,0,0,4-.92,4.1,4.1,0,0,0,.61-4.72A3.85,3.85,0,0,0,354,55.31,3.65,3.65,0,0,0,351,59.05a1.25,1.25,0,1,0,2.5,0,3,3,0,0,1,0-.42c0-.18,0,.19,0,.19l0-.12.06-.21a1.15,1.15,0,0,1,.06-.17c-.11.37-.1.22,0,.1l.09-.16c.07-.12.24-.25-.05,0,.08-.08.15-.17.23-.24l.13-.12c-.32.3-.15.12,0,.05a2.69,2.69,0,0,1,.29-.16c.15-.08-.19.1-.18.07l.08,0,.2-.06a2.09,2.09,0,0,1,.34-.08c.18,0-.38,0-.12,0h.56c.18,0-.38-.06-.12,0l.19,0c.14,0,.52.23.08,0a2,2,0,0,1,.32.17l.15.09c.11.08-.25-.21-.15-.11l.08.07a1.36,1.36,0,0,1,.12.12c.05,0,.21.24.05,0s0,0,0,0,.07.1.1.16.13.28,0,0,0,0,0,.1.06.27.09.41,0-.32,0-.17a.49.49,0,0,0,0,.12c0,.08,0,.16,0,.24s0,.16,0,.24,0,.06,0,.1,0-.33,0-.19-.06.27-.1.39a.85.85,0,0,1-.06.17c.12-.38.1-.21,0-.09a3.45,3.45,0,0,1-.2.32c-.09.14.11-.16.12-.15l-.05.06a5970985943014.51,5970985943014.51,0,0,0-.24.24c-.19.17.28-.19.07-.05a2.61,2.61,0,0,1-.28.17l-.14.07.18-.08-.11,0a1.81,1.81,0,0,1-.31.09l-.16,0c-.14,0,.21,0,.21,0l-.12,0h-.48c-.15,0,.21,0,.21,0l-.12,0-.34-.1-.08,0c-.17-.06.31.15.15.06l-.18-.09-.15-.09-.07,0c-.17-.11.15.1.14.11s-.26-.24-.28-.27c-.2-.23.16.24,0,.05l-.11-.16a1.24,1.24,0,0,0-.1-.2c-.08-.15.13.35,0,.06a3.69,3.69,0,0,1-.11-.45c0-.17,0,.18,0,.18a.88.88,0,0,0,0-.16,2.62,2.62,0,0,1,0-.28,1.26,1.26,0,0,0-1.25-1.25A1.28,1.28,0,0,0,351,59.05Z" transform="translate(7.74)"/><path class="cls-7" d="M388.51,59.05a2.56,2.56,0,1,0,5.08-.32c-.36-3.23-5.24-2.84-5.08.32" transform="translate(7.74)"/><path class="cls-7" d="M387.26,59.05a4,4,0,0,0,.68,2.32,3.73,3.73,0,0,0,1.89,1.4,3.94,3.94,0,0,0,3.95-.92,4.1,4.1,0,0,0,.6-4.72,3.83,3.83,0,0,0-4.07-1.82,3.65,3.65,0,0,0-3.05,3.74,1.28,1.28,0,0,0,1.25,1.25,1.26,1.26,0,0,0,1.25-1.25c0-.14,0-.28,0-.42s0,.19,0,.19,0-.11,0-.12a1.6,1.6,0,0,1,.05-.21l.06-.17c-.11.37-.1.22,0,.1a.8.8,0,0,1,.08-.16c.08-.12.24-.25,0,0a2.61,2.61,0,0,1,.23-.24l.13-.12c-.33.3-.16.12-.05.05l.3-.16c.14-.08-.2.1-.19.07l.08,0,.21-.06a2,2,0,0,1,.33-.08c.18,0-.38,0-.12,0h.56c.19,0-.38-.06-.12,0l.19,0c.14,0,.52.23.09,0a3.37,3.37,0,0,1,.32.17l.14.09c.11.08-.25-.21-.15-.11a.27.27,0,0,1,.08.07.74.74,0,0,1,.13.12s.2.24,0,0,0,0,0,0l.09.16c0,.05.13.28,0,0s0,0,0,.1a3,3,0,0,1,.09.41c0,.15,0-.32,0-.17s0,.08,0,.12a2.89,2.89,0,0,1,0,.48s0,.06,0,.1.06-.33,0-.19-.05.27-.09.39l-.06.17c.11-.38.09-.21,0-.09a1.55,1.55,0,0,1-.2.32c-.08.14.12-.16.12-.15s0,.06-.05.06a1.31,1.31,0,0,1-.11.12l-.12.12c-.19.17.27-.19.06-.05a2.61,2.61,0,0,1-.28.17l-.14.07c-.13.07.18-.08.19-.08l-.12,0a1.58,1.58,0,0,1-.31.09l-.16,0c-.14,0,.22,0,.22,0l-.12,0h-.49l.22,0-.12,0-.35-.1-.08,0c-.17-.06.32.15.16.06l-.18-.09-.16-.09a.18.18,0,0,0-.07,0c-.16-.11.15.1.14.11S390.05,60,390,60c-.19-.23.17.24,0,.05l-.1-.16c0-.07-.07-.14-.11-.2s.14.35,0,.06a2.5,2.5,0,0,1-.12-.45c0-.17,0,.18,0,.18a.86.86,0,0,0,0-.16c0-.09,0-.19,0-.28a1.26,1.26,0,0,0-1.25-1.25,1.28,1.28,0,0,0-1.25,1.25Z" transform="translate(7.74)"/><path class="cls-4" d="M354.58,48.22a3,3,0,0,0,.33,3.65,3.16,3.16,0,0,0,3.1.93,3.2,3.2,0,0,0,2.25-3,2.81,2.81,0,0,0-.52-1.68,3.55,3.55,0,0,0-.82-.82,3.2,3.2,0,0,0-.78-.4,3,3,0,0,0-1.86-.07,2.84,2.84,0,0,0-1.7,1.43,1.34,1.34,0,0,0-.13,1,1.25,1.25,0,0,0,2.29.3,1.81,1.81,0,0,1,.2-.33l-.19.25a1.72,1.72,0,0,1,.27-.27l-.25.19a1.6,1.6,0,0,1,.34-.2l-.3.13a1.6,1.6,0,0,1,.39-.11l-.33,0a1.85,1.85,0,0,1,.47,0l-.34,0a2.38,2.38,0,0,1,.52.15l-.3-.13a2.43,2.43,0,0,1,.44.26l-.25-.2a3.06,3.06,0,0,1,.36.36l-.2-.25a1.54,1.54,0,0,1,.23.39l-.12-.3a2,2,0,0,1,.11.42l0-.33a1.69,1.69,0,0,1,0,.45l.05-.33a2.38,2.38,0,0,1-.15.52l.13-.3a3.2,3.2,0,0,1-.29.51l.19-.25a2.34,2.34,0,0,1-.31.32l.25-.2a1.31,1.31,0,0,1-.36.21l.3-.12a1.6,1.6,0,0,1-.43.11l.33,0a1.69,1.69,0,0,1-.45,0l.33,0a1.63,1.63,0,0,1-.48-.13l.3.13a1.92,1.92,0,0,1-.46-.27l.25.19a1.82,1.82,0,0,1-.34-.34l.2.26a2,2,0,0,1-.23-.4l.13.3a1.45,1.45,0,0,1-.12-.42l.05.33a1.77,1.77,0,0,1,0-.46l-.05.33a2.46,2.46,0,0,1,.15-.53l-.12.3a1.34,1.34,0,0,1,.12-.24,1.29,1.29,0,0,0,.12-1,1.24,1.24,0,0,0-2.28-.3Z" transform="translate(7.74)"/><path class="cls-4" d="M386,66.81a3.06,3.06,0,0,0,.33,3.66,3.16,3.16,0,0,0,3.1.93,3.22,3.22,0,0,0,2.25-3,2.79,2.79,0,0,0-.52-1.68,3.36,3.36,0,0,0-.82-.82,3.2,3.2,0,0,0-.78-.4A2.82,2.82,0,0,0,386,66.81a1.36,1.36,0,0,0-.13,1,1.26,1.26,0,0,0,2.29.29,2.9,2.9,0,0,1,.2-.33l-.19.26a1.44,1.44,0,0,1,.27-.28l-.25.2a1.38,1.38,0,0,1,.33-.2l-.29.13a1.25,1.25,0,0,1,.39-.11l-.33,0a1.85,1.85,0,0,1,.47,0l-.34,0a2.35,2.35,0,0,1,.52.14l-.3-.12a2,2,0,0,1,.44.26l-.25-.2a2.45,2.45,0,0,1,.36.36l-.2-.25a1.54,1.54,0,0,1,.23.39l-.12-.3a1.91,1.91,0,0,1,.11.41l0-.33a1.77,1.77,0,0,1,0,.46l.05-.34a2.46,2.46,0,0,1-.15.53l.13-.3a2.29,2.29,0,0,1-.3.5l.2-.25a1.88,1.88,0,0,1-.31.32l.25-.19a2.12,2.12,0,0,1-.36.21l.3-.13a1.62,1.62,0,0,1-.43.12l.33,0a2.26,2.26,0,0,1-.45,0l.33,0a2,2,0,0,1-.48-.13l.3.12a1.92,1.92,0,0,1-.46-.27l.25.2a1.82,1.82,0,0,1-.34-.34l.2.25a1.54,1.54,0,0,1-.23-.39l.13.3a1.66,1.66,0,0,1-.12-.42l.05.33a1.77,1.77,0,0,1,0-.46l-.05.33a2.31,2.31,0,0,1,.15-.53l-.12.3a1.15,1.15,0,0,1,.12-.25,1.28,1.28,0,0,0,.12-1,1.3,1.3,0,0,0-.57-.75,1.27,1.27,0,0,0-1.71.45Z" transform="translate(7.74)"/><path class="cls-4" d="M362.27,77.85a3.1,3.1,0,0,0,1.83.45,3.07,3.07,0,0,0,1.1-.31,2.92,2.92,0,0,0,.67-.48,3.25,3.25,0,0,0,.92-3.15,3.21,3.21,0,0,0-3-2.28,3,3,0,0,0-1.88.72,3.32,3.32,0,0,0-1,1.44,3.13,3.13,0,0,0-.07,1.89,2.9,2.9,0,0,0,1.41,1.72A1.24,1.24,0,0,0,364,77.4a1.27,1.27,0,0,0-.45-1.71,2,2,0,0,1-.27-.17l.25.2a2.13,2.13,0,0,1-.3-.3l.19.25a2,2,0,0,1-.2-.35l.13.3a1.91,1.91,0,0,1-.11-.41l0,.34a1.81,1.81,0,0,1,0-.52l0,.33a2.46,2.46,0,0,1,.15-.53l-.13.3a2.87,2.87,0,0,1,.28-.48l-.19.26a1.88,1.88,0,0,1,.34-.35l-.25.2a1.9,1.9,0,0,1,.39-.23l-.3.13a1.74,1.74,0,0,1,.39-.11l-.34,0a1.48,1.48,0,0,1,.42,0l-.33,0a2.85,2.85,0,0,1,.48.13l-.3-.12a1.94,1.94,0,0,1,.48.28l-.25-.2a1.93,1.93,0,0,1,.35.35l-.2-.26a2,2,0,0,1,.22.37l-.13-.3a1.62,1.62,0,0,1,.12.43l-.05-.33a1.81,1.81,0,0,1,0,.52l.05-.33a2.85,2.85,0,0,1-.14.5l.12-.3a2,2,0,0,1-.26.45l.2-.25a1.82,1.82,0,0,1-.34.34l.25-.19a1.72,1.72,0,0,1-.37.22l.3-.13a1.45,1.45,0,0,1-.42.12l.34,0a1.55,1.55,0,0,1-.43,0l.33,0a2.09,2.09,0,0,1-.49-.13l.3.12a2.44,2.44,0,0,1-.28-.14,1.25,1.25,0,1,0-1.26,2.16Z" transform="translate(7.74)"/><path class="cls-4" d="M380.42,45.64a3,3,0,0,0,1.83.45,3.07,3.07,0,0,0,1.1-.31,2.89,2.89,0,0,0,.68-.48,3.25,3.25,0,0,0,.91-3.14,3.18,3.18,0,0,0-3-2.28,2.89,2.89,0,0,0-1.88.71,3.26,3.26,0,0,0-1,1.44,3.13,3.13,0,0,0-.07,1.89,2.9,2.9,0,0,0,1.41,1.72,1.32,1.32,0,0,0,1,.13,1.25,1.25,0,0,0,.74-.57,1.27,1.27,0,0,0-.45-1.72,2,2,0,0,1-.27-.17l.25.2a2.13,2.13,0,0,1-.3-.3l.2.25a1.55,1.55,0,0,1-.21-.35l.13.3a1.76,1.76,0,0,1-.11-.41l.05.34a1.81,1.81,0,0,1,0-.52l-.05.34a2.39,2.39,0,0,1,.15-.54l-.12.3a1.72,1.72,0,0,1,.28-.47l-.2.25a2.81,2.81,0,0,1,.34-.35l-.25.2a1.9,1.9,0,0,1,.39-.23l-.3.13a1.9,1.9,0,0,1,.39-.11l-.33,0a1.41,1.41,0,0,1,.41,0l-.33,0a1.9,1.9,0,0,1,.48.14l-.3-.13a3,3,0,0,1,.49.28l-.26-.2a1.93,1.93,0,0,1,.35.35l-.19-.25a1.88,1.88,0,0,1,.21.37l-.13-.3a1.45,1.45,0,0,1,.12.42l-.05-.33a1.51,1.51,0,0,1,0,.52l.05-.33a2.85,2.85,0,0,1-.14.5l.12-.3a1.7,1.7,0,0,1-.26.45l.2-.25a1.88,1.88,0,0,1-.34.35l.25-.2a1.51,1.51,0,0,1-.37.22l.3-.13a1.45,1.45,0,0,1-.42.12l.34,0a1.55,1.55,0,0,1-.43,0l.33,0a2.75,2.75,0,0,1-.49-.14l.3.12a1.47,1.47,0,0,1-.28-.14,1.25,1.25,0,0,0-1.26,2.16Z" transform="translate(7.74)"/><path class="cls-4" d="M354.55,69.92a3.1,3.1,0,0,0,1.32,1.29,3,3,0,0,0,1.94.22,3.2,3.2,0,0,0,2.33-2.21,3.28,3.28,0,0,0-1.42-3.52,2.65,2.65,0,0,0-1.69-.4,3.59,3.59,0,0,0-1.15.32,3.64,3.64,0,0,0-.71.47,3.24,3.24,0,0,0-.61.72,2.81,2.81,0,0,0-.38.87,3,3,0,0,0,.37,2.24,1.34,1.34,0,0,0,.75.57,1.24,1.24,0,0,0,1-.13,1.26,1.26,0,0,0,.45-1.71,1.51,1.51,0,0,1-.15-.28l.13.3a1.59,1.59,0,0,1-.12-.41l.05.33a2.06,2.06,0,0,1,0-.43l0,.33a1.62,1.62,0,0,1,.12-.43l-.13.3a1.69,1.69,0,0,1,.24-.41l-.19.25a2,2,0,0,1,.38-.38l-.26.2a2.82,2.82,0,0,1,.44-.26l-.3.13a2.11,2.11,0,0,1,.49-.14l-.33,0a1.62,1.62,0,0,1,.44,0l-.34,0a1.91,1.91,0,0,1,.41.11l-.3-.12a1.57,1.57,0,0,1,.33.19l-.26-.19a1.88,1.88,0,0,1,.35.34l-.2-.25a2.62,2.62,0,0,1,.3.51l-.12-.3a2.17,2.17,0,0,1,.13.5l0-.33a1.7,1.7,0,0,1,0,.45l0-.34a1.76,1.76,0,0,1-.12.45l.13-.3a2.14,2.14,0,0,1-.25.41l.2-.25a2,2,0,0,1-.36.35l.25-.19a1.67,1.67,0,0,1-.43.25l.3-.12A1.66,1.66,0,0,1,357,69l.33,0a1.62,1.62,0,0,1-.44,0l.34,0a1.76,1.76,0,0,1-.41-.11l.3.12a2.12,2.12,0,0,1-.36-.21l.25.19a1.72,1.72,0,0,1-.33-.33l.2.26a2.2,2.2,0,0,1-.21-.32,1.27,1.27,0,0,0-.75-.57,1.24,1.24,0,0,0-1,.13,1.28,1.28,0,0,0-.45,1.71Z" transform="translate(7.74)"/><path class="cls-4" d="M386,51.32a3.1,3.1,0,0,0,1.32,1.29,3,3,0,0,0,1.94.23,3.19,3.19,0,0,0,2.33-2.22,3.28,3.28,0,0,0-1.42-3.52,2.74,2.74,0,0,0-1.7-.4,3.6,3.6,0,0,0-1.14.32,3.29,3.29,0,0,0-.71.48,3,3,0,0,0-.61.71,2.81,2.81,0,0,0-.38.87,3,3,0,0,0,.37,2.24,1.36,1.36,0,0,0,.75.58,1.28,1.28,0,0,0,1-.13,1.27,1.27,0,0,0,.45-1.71,1.59,1.59,0,0,1-.15-.29l.13.3a1.48,1.48,0,0,1-.12-.41l.05.33a2,2,0,0,1,0-.43l0,.34a1.52,1.52,0,0,1,.12-.43l-.13.29a1.91,1.91,0,0,1,.24-.41l-.19.26a1.71,1.71,0,0,1,.38-.38l-.26.19a2.76,2.76,0,0,1,.44-.25l-.3.12a2.09,2.09,0,0,1,.49-.13l-.34,0a1.7,1.7,0,0,1,.45,0l-.34,0a1.46,1.46,0,0,1,.41.11l-.3-.13a2.9,2.9,0,0,1,.33.2l-.26-.2a1.93,1.93,0,0,1,.35.35l-.2-.25a2.29,2.29,0,0,1,.3.5l-.12-.3a2.25,2.25,0,0,1,.13.51l0-.34a1.7,1.7,0,0,1,0,.45l0-.33a1.69,1.69,0,0,1-.12.44l.13-.3a2.22,2.22,0,0,1-.25.42l.2-.26a2,2,0,0,1-.36.36l.25-.2a1.7,1.7,0,0,1-.43.26l.3-.13a2.13,2.13,0,0,1-.45.13l.33-.05a2.14,2.14,0,0,1-.44,0l.34,0a1.76,1.76,0,0,1-.41-.11l.3.13a1.65,1.65,0,0,1-.36-.22l.25.2a2.57,2.57,0,0,1-.33-.33l.2.25a2.11,2.11,0,0,1-.21-.31,1.32,1.32,0,0,0-.75-.58,1.29,1.29,0,0,0-1,.13,1.27,1.27,0,0,0-.45,1.71Z" transform="translate(7.74)"/><path class="cls-4" d="M383.49,77.89a3.09,3.09,0,0,0,1.27-1.36,3,3,0,0,0,.29-1.11,2.63,2.63,0,0,0-.07-.84,3.05,3.05,0,0,0-5.66-.91,2.85,2.85,0,0,0-.39,1.71,3.17,3.17,0,0,0,.2.86,3.72,3.72,0,0,0,.59,1,3,3,0,0,0,1.56,1,2.87,2.87,0,0,0,2.21-.37,1.34,1.34,0,0,0,.57-.75,1.25,1.25,0,0,0-.87-1.54,1.24,1.24,0,0,0-1,.13l-.32.17.3-.13a1.64,1.64,0,0,1-.38.1l.33,0a1.28,1.28,0,0,1-.39,0l.33,0a1.82,1.82,0,0,1-.4-.11l.3.12a1.52,1.52,0,0,1-.41-.24l.25.2a1.8,1.8,0,0,1-.36-.37l.19.25a2.51,2.51,0,0,1-.26-.45l.13.3a1.68,1.68,0,0,1-.15-.53l0,.33a3.53,3.53,0,0,1,0-.46l0,.33a2.17,2.17,0,0,1,.11-.42l-.12.3a2,2,0,0,1,.22-.37l-.2.26a1.72,1.72,0,0,1,.33-.33l-.25.19a2.55,2.55,0,0,1,.5-.3l-.29.13a1.62,1.62,0,0,1,.43-.12l-.33,0a1.62,1.62,0,0,1,.44,0l-.33,0a1.48,1.48,0,0,1,.41.12l-.3-.13a2.3,2.3,0,0,1,.4.23l-.26-.2a1.8,1.8,0,0,1,.36.37l-.19-.26a2.51,2.51,0,0,1,.26.45l-.13-.3a1.69,1.69,0,0,1,.14.5l0-.34a2.36,2.36,0,0,1,0,.46l0-.33a1.63,1.63,0,0,1-.11.42l.13-.3a1.79,1.79,0,0,1-.22.38l.2-.26a1.8,1.8,0,0,1-.37.36l.26-.19-.25.17a1.29,1.29,0,0,0-.58.74,1.32,1.32,0,0,0,.13,1,1.27,1.27,0,0,0,1.71.45Z" transform="translate(7.74)"/><path class="cls-4" d="M365.34,45.68a3,3,0,0,0,1.56-2.47,3,3,0,0,0-.07-.84,3.05,3.05,0,0,0-5.66-.91,2.85,2.85,0,0,0-.39,1.71A3.57,3.57,0,0,0,361,44a4,4,0,0,0,.6,1,2.84,2.84,0,0,0,3.77.63,1.34,1.34,0,0,0,.57-.75,1.24,1.24,0,0,0-.13-1,1.26,1.26,0,0,0-.74-.58,1.32,1.32,0,0,0-1,.13,3.07,3.07,0,0,1-.31.17l.3-.13a1.82,1.82,0,0,1-.38.11l.33-.05a1.28,1.28,0,0,1-.39,0l.33.05a1.82,1.82,0,0,1-.4-.11l.3.13a1.87,1.87,0,0,1-.41-.25l.25.2a1.8,1.8,0,0,1-.36-.37l.19.25a2.51,2.51,0,0,1-.26-.45l.12.3a2,2,0,0,1-.14-.53l0,.33a1.77,1.77,0,0,1,0-.46l0,.33a2.17,2.17,0,0,1,.11-.42l-.12.3a2,2,0,0,1,.21-.37l-.19.26a1.72,1.72,0,0,1,.33-.33l-.25.19a2.29,2.29,0,0,1,.5-.3l-.3.13a1.69,1.69,0,0,1,.44-.12l-.33,0a1.62,1.62,0,0,1,.44,0l-.33,0a1.46,1.46,0,0,1,.41.11l-.3-.13a1.9,1.9,0,0,1,.39.23L364,42.4a1.54,1.54,0,0,1,.36.36l-.19-.25a2.13,2.13,0,0,1,.26.44l-.13-.3a2.19,2.19,0,0,1,.14.5l-.05-.34a2.37,2.37,0,0,1,0,.46l0-.33a1.85,1.85,0,0,1-.11.42l.13-.3a1.79,1.79,0,0,1-.22.38l.19-.26a1.54,1.54,0,0,1-.36.36l.26-.19-.26.17a1.27,1.27,0,0,0-.57.75,1.24,1.24,0,0,0,.13,1,1.27,1.27,0,0,0,1.71.45Z" transform="translate(7.74)"/><path class="cls-4" d="M369.74,58.64l-9.58,6c-1.36.85-.11,3,1.26,2.16l9.59-6c1.36-.85.1-3-1.27-2.16Z" transform="translate(7.74)"/><path class="cls-4" d="M365.34,65.65c-.27,0,.38.06.13,0l-.25,0-.68-.12-1.65-.3-2.22-.41.87,1.53c.47-1.62,1-3.25,1.38-4.89a1.27,1.27,0,0,0-.87-1.54,1.29,1.29,0,0,0-1.54.88c-.4,1.64-.91,3.26-1.38,4.89a1.27,1.27,0,0,0,.87,1.54l2.28.42c1,.19,2,.41,3.06.52a1.26,1.26,0,0,0,1.25-1.25,1.28,1.28,0,0,0-1.25-1.25Z" transform="translate(7.74)"/><path class="cls-4" d="M369.22,60.34a4.39,4.39,0,0,0,2.12,1.8,3.76,3.76,0,0,0,2.25.1,4.17,4.17,0,0,0,3-3,4.26,4.26,0,0,0-2-4.52,4.07,4.07,0,0,0-4.66.64,3.8,3.8,0,0,0-.68,5,1.34,1.34,0,0,0,.75.57,1.25,1.25,0,0,0,1-.12,1.28,1.28,0,0,0,.45-1.71,2.2,2.2,0,0,1-.18-.28s-.05-.1-.07-.14.11.31,0,.11a3.82,3.82,0,0,1-.14-.56l.05.33a2.22,2.22,0,0,1,0-.63l-.05.33a3,3,0,0,1,.11-.43s0-.07,0-.11-.16.32-.07.16.06-.14.1-.2a1,1,0,0,1,.11-.17l.06-.1-.1.13c.1-.11.19-.23.3-.33l.16-.13c.14-.13-.23.16-.13.09l.09-.06a4,4,0,0,1,.39-.23l.11,0-.16.06.22-.07a3.12,3.12,0,0,1,.44-.09l-.33,0a2.51,2.51,0,0,1,.67,0l-.33,0a2.33,2.33,0,0,1,.38.08.8.8,0,0,0,.2.07s-.31-.14-.17-.07l.09,0a2.67,2.67,0,0,1,.36.22c.11.08-.26-.21-.11-.08a.46.46,0,0,1,.07.07,1.45,1.45,0,0,1,.18.17l.15.17c.09.11-.17-.23-.09-.11l.08.12a3.26,3.26,0,0,1,.24.4,1,1,0,0,1,0,.1c.07.12-.1-.29-.06-.16s.05.14.07.21a3.15,3.15,0,0,1,.09.42l0-.33a3.75,3.75,0,0,1,0,.67l0-.34a3,3,0,0,1-.09.43c0,.06-.13.34,0,.09s0,0,0,.06a3.17,3.17,0,0,1-.23.36c-.08.12.22-.26.1-.13l-.08.1-.15.15-.16.14c-.13.12.25-.18.13-.1l-.08.06a2.77,2.77,0,0,1-.37.22l-.12.06.18-.08s-.18.07-.22.08l-.43.1.33,0a3.09,3.09,0,0,1-.68,0l.33,0a2.23,2.23,0,0,1-.51-.12c-.1,0-.23-.13.13.06l-.12-.06-.25-.14a.44.44,0,0,0-.11-.09c.05,0,.27.22.09.08a2.28,2.28,0,0,1-.22-.22l-.2-.22c-.08-.1.2.28.06.07a1.63,1.63,0,0,1-.11-.17,1.25,1.25,0,0,0-2.16,1.26Z" transform="translate(7.74)"/><g class="cls-8"><path class="cls-3" d="M631,19c.62-1.22,1.46-3.11,2.84-3.68a2.19,2.19,0,0,1,2.17.59c1.87,1.48,3.09,3.66,4.74,5.36a6.43,6.43,0,0,0,5.83,2.16c2-.44,3.4-2.18,4.55-3.76,1.27-1.75,2.37-3.75,4.09-5.11a5.32,5.32,0,0,1,5.94-.38c1.86,1,3.11,2.83,4.81,4.08a5.17,5.17,0,0,0,5.86.3,8.83,8.83,0,0,0,3.35-3.21,23.61,23.61,0,0,1,2.07-3.58,3.8,3.8,0,0,1,4.13-.91c1.82.57,2.75,2.43,3.37,4.1.54,1.5,3,.85,2.41-.67-1.22-3.32-3.3-6-7.06-6.13-3.21-.15-5,1.94-6.34,4.56-.93,1.79-2.94,4.88-5.42,4-1.83-.62-3.16-2.74-4.66-3.88a8.37,8.37,0,0,0-7.31-1.67c-2.37.65-4,2.51-5.44,4.42-1.22,1.64-2.27,3.84-4,5S643.22,20.31,642,19c-1.78-2-3.29-4.69-5.8-5.86-3.53-1.65-6,1.84-7.42,4.6-.72,1.43,1.44,2.7,2.16,1.26Z" transform="translate(7.74)"/><path class="cls-3" d="M626.55,29.3c.63-1.11,1.49-2.87,2.78-3.36.56-.21,1,.06,1.54.54,1.68,1.54,2.63,3.83,3.92,5.67a7.89,7.89,0,0,0,5.74,3.77,6.85,6.85,0,0,0,5.64-2.32,68.37,68.37,0,0,0,4.18-5.41c1.24-1.54,2.78-3.11,4.91-3,5,.18,6.72,7.2,11.89,7,3.52-.15,6.25-3.36,7.73-6.24a5.52,5.52,0,0,1,4-3.17,6.55,6.55,0,0,1,6.26,2c1.11,1.18,2.87-.59,1.77-1.76a9.16,9.16,0,0,0-11.07-1.79,7.61,7.61,0,0,0-3.1,3.42,10.55,10.55,0,0,1-3.06,3.83,4,4,0,0,1-3.37,1.09,6.72,6.72,0,0,1-2.75-1.91c-1.86-1.81-3.65-4-6.26-4.68-5.52-1.54-8.52,3.26-11.35,7.05-1.11,1.5-2.57,3.39-4.61,3.47-2.41.09-3.82-1.68-5-3.51-1.34-2.09-2.61-4.92-4.9-6.15-3.19-1.71-5.68,1.83-7,4.22a1.25,1.25,0,0,0,2.15,1.27Z" transform="translate(7.74)"/><path class="cls-3" d="M625.42,43.11c1.68-1.5,3.8-2.94,6.13-2.17,1.81.61,3.29,2.06,4.81,3.16a8.72,8.72,0,0,0,12.39-.84c1.68-1.68,2.85-3.79,4.52-5.47s3.25-1.48,5.1-.14c2.42,1.76,4,4.17,5.93,6.39,1.48,1.7,3.39,2.48,5.47,1.28a17.13,17.13,0,0,0,4.09-4A44.35,44.35,0,0,1,678,37.08,10.18,10.18,0,0,1,683,34.37c2.19-.31,3.9,1,5.25,2.6,1,1.22,2.81-.55,1.77-1.76-2.48-2.87-5.86-4.21-9.48-2.69-3.31,1.38-5.86,4.2-8.21,6.82-1.16,1.29-3.66,5.42-5.67,3.54A25.59,25.59,0,0,1,664.29,40,23.33,23.33,0,0,0,661,36.55c-2-1.69-4.5-3.27-7.16-2.16-2.16.91-3.52,3-4.89,4.83-1.52,2-3.23,3.93-5.8,4.46-2.07.44-3.86-.56-5.49-1.74-1.84-1.33-3.59-3-5.85-3.53-3.11-.76-5.88.93-8.12,2.94-1.2,1.07.58,2.84,1.77,1.76Z" transform="translate(7.74)"/><path class="cls-3" d="M630.23,54.13c1.62-1.53,3.53-2.81,5.78-1.89,1.86.76,3.38,2.18,5.22,3a8,8,0,0,0,6.38.23A11,11,0,0,0,652,51.52c.78-1.05,1.72-2.8,3.12-3.08,1.92-.39,4.21,1.88,5.39,3.12s2.33,3.09,4,4c2,1.12,4.28.37,6.19-.61,2.81-1.44,5-3.59,7.48-5.46a8.08,8.08,0,0,1,3.67-1.84c1.61-.18,2.77,1,3.62,2.22s3.09.06,2.16-1.26c-1.65-2.35-4-4-6.93-3.27-2.62.67-4.75,2.72-6.76,4.41a27.06,27.06,0,0,1-3.63,2.57,7.32,7.32,0,0,1-3.64,1.32c-1.69-.09-2.83-2.14-3.83-3.26-2.79-3.13-7.49-6.5-11-2.61-1.32,1.43-2.23,3.22-3.71,4.51a5.27,5.27,0,0,1-5.65.75c-2.16-.92-3.87-2.65-6.13-3.35-3-.94-5.66.68-7.78,2.68-1.17,1.11.6,2.87,1.76,1.77Z" transform="translate(7.74)"/><path class="cls-3" d="M634.25,64.66c1.7-1.14,3.35-1.69,5.28-.82A34.61,34.61,0,0,0,644,66c4,1.16,7-1.35,9.39-4.32,1-1.31,2.15-2.82,3.73-3.52a5.35,5.35,0,0,1,5.14.65c3.26,2.06,6.45,5.49,10.66,3.73,2-.82,3.47-2.32,5.23-3.46,2-1.28,3.54-1.2,5.26.5a1.25,1.25,0,0,0,1.76-1.76c-1.55-1.54-3.49-2.58-5.72-2.06-1.82.42-3.31,1.68-4.77,2.77s-3.06,2.32-5,1.89-3.65-2-5.3-3.2a8.71,8.71,0,0,0-5.73-1.94,8.13,8.13,0,0,0-5.11,2.43c-2.44,2.39-4.45,7-8.62,5.94-1.88-.46-3.39-1.8-5.23-2.41A7.5,7.5,0,0,0,633,62.5c-1.33.89-.08,3.06,1.26,2.16Z" transform="translate(7.74)"/></g><path class="cls-2" d="M652.36,8.14c-31,3.27-25.41,66.54,11.3,56.9,29.18-7.72,23-64.08-11.3-56.9" transform="translate(7.74)"/><path class="cls-3" d="M652.36,6.89A21.68,21.68,0,0,0,638,14.36a30.61,30.61,0,0,0-6.54,15.1c-1.71,11,.9,24,9.36,31.81,9.06,8.38,24,7.73,33.07-.37s11.27-22.11,8.44-33.51a30.27,30.27,0,0,0-8.55-15.15,23.14,23.14,0,0,0-16.47-6,31.72,31.72,0,0,0-5.31.66c-1.57.32-.91,2.73.67,2.41,5.71-1.17,11.68-.6,16.66,2.59a24.79,24.79,0,0,1,9.43,12.34c3.79,10.18,3,23.08-3.81,31.84s-20.48,11.59-29.85,5.36c-8.76-5.8-12-17.5-11.6-27.5.45-9.77,5-20.66,15.07-23.79a20.14,20.14,0,0,1,3.76-.8c1.59-.17,1.6-2.67,0-2.5Z" transform="translate(7.74)"/><path class="cls-3" d="M652.19,65.72a39.41,39.41,0,0,1-4,9.51,1.27,1.27,0,0,0,.75,1.84,10.2,10.2,0,0,0,2.26.54c1.1.17,2.21.28,3.33.35a29.32,29.32,0,0,0,3.11,0,7.9,7.9,0,0,0,2.47-.42A1.3,1.3,0,0,0,661,76c-.6-3.17-1.68-6.25-2-9.47a1.28,1.28,0,0,0-1.25-1.25,1.26,1.26,0,0,0-1.25,1.25c.34,3.45,1.44,6.74,2.09,10.14l.87-1.54a4.79,4.79,0,0,1-.9.24c-.06,0-.38.05-.05,0l-.31,0-.67,0a29.82,29.82,0,0,1-3,0c-.51,0-1-.07-1.52-.12l-.76-.09-.15,0-.35,0a9.78,9.78,0,0,1-2.15-.52l.75,1.83a42,42,0,0,0,4.2-10.1,1.25,1.25,0,0,0-2.41-.67Z" transform="translate(7.74)"/><path class="cls-4" d="M680,35.79c-28.31,8.73-7.75,60.64,13.8,45.64,24.75-17.22,11.08-54.75-13.8-45.64" transform="translate(7.74)"/><path class="cls-4" d="M679.65,34.58a20.32,20.32,0,0,0-11.21,8.26,24.35,24.35,0,0,0-3.53,12.78c-.13,8.87,3.31,18.58,9.8,24.78a16.84,16.84,0,0,0,10.33,5c4.85.33,9.05-2.26,12.57-5.34,8.8-7.69,12.76-20.14,9.16-31.39a23.48,23.48,0,0,0-8.47-12.06,19.21,19.21,0,0,0-14.37-3.13,24.34,24.34,0,0,0-4.28,1.14c-1.51.54-.86,3,.66,2.41,4.54-1.63,9.58-2,14,.15a19.21,19.21,0,0,1,8.92,9.33c4.43,9.34,2.38,20.88-4.27,28.62-3,3.43-7,7.07-11.68,7.71A12.61,12.61,0,0,1,678.07,80c-6.33-4.83-9.85-13.4-10.54-21.15-.72-8.17,1.93-16.68,9.65-20.61A20.27,20.27,0,0,1,680.31,37c1.53-.48.88-2.89-.66-2.41Z" transform="translate(7.74)"/><path class="cls-4" d="M682.6,83.59c-1.53,2.55-1.87,5.54-3.14,8.2-.31.64-.11,1.7.75,1.83a35,35,0,0,0,10.71.48,1.27,1.27,0,0,0,.87-1.53c-.46-2.86-2-5.48-2.31-8.35A1.29,1.29,0,0,0,688.23,83,1.25,1.25,0,0,0,687,84.22c.36,3.12,1.9,5.92,2.4,9l.87-1.54a31.62,31.62,0,0,1-9.38-.48l.75,1.84c1.27-2.65,1.62-5.67,3.14-8.2a1.25,1.25,0,0,0-2.16-1.26Z" transform="translate(7.74)"/><path class="cls-4" d="M695.26,41.66a6.43,6.43,0,0,0-4,1.37,5.17,5.17,0,0,0-1.72,2.89,6.58,6.58,0,0,0,2.52,6.53,6,6,0,0,0,7.17.12,6.6,6.6,0,0,0,2-6.21,5.81,5.81,0,0,0-1.75-3.27,6,6,0,0,0-4.22-1.43,1.25,1.25,0,0,0,0,2.5,7.12,7.12,0,0,1,.8,0c.31,0-.18,0,0,0l.18,0,.39.1.33.1c.21.06,0,0-.07,0a.69.69,0,0,1,.15.07c.22.11.41.25.62.37-.29-.16,0,0,.05,0l.22.21c.07.07.13.16.2.23s-.09-.19,0,0a.72.72,0,0,0,.11.15c.11.17.2.35.3.53s0-.14,0,.05l.13.36a4.34,4.34,0,0,1,.14.6c0,.16,0,.32,0,0,0,.13,0,.26,0,.39s0,.41,0,.62,0,.2,0,.31,0-.08,0-.11a1.57,1.57,0,0,1,0,.23c0,.2-.08.4-.14.6s-.06.19-.1.29a.78.78,0,0,0,0,.14c-.09.25.13-.25,0,0s-.17.35-.28.52-.11.17-.16.25.05-.06.06-.08l-.14.17c-.13.15-.28.27-.41.41s.21-.14,0,0l-.3.19-.27.13c.24-.12.11,0,0,0l-.3.08-.15,0c-.25.07.29,0,0,0l-.69,0-.4,0c-.07,0-.25,0,0,0l-.28,0a5.71,5.71,0,0,1-.71-.19c-.1,0-.39-.19-.11,0-.13-.07-.27-.12-.39-.19a5.57,5.57,0,0,1-.57-.37c.22.16,0,0-.07-.07L693,50l-.25-.27a1.47,1.47,0,0,1-.1-.13s.16.24,0,.06-.26-.38-.37-.58-.1-.21-.16-.32.09.25,0-.07-.14-.42-.19-.64,0-.21-.06-.31c-.07-.29,0,.26,0-.09s0-.44,0-.66,0-.23,0-.34c0,.37,0,0,0-.12s.16-.45.2-.68-.13.2,0,.09,0-.12.08-.17a3.37,3.37,0,0,1,.19-.32,1.48,1.48,0,0,1,.08-.13c.13-.22-.18.2,0,0l.23-.25.26-.24c.15-.15,0,0-.06,0l.2-.13.36-.21.15-.08c.2-.11-.16,0,0,0s.56-.19.85-.25l.2,0c.32-.07-.27,0,.07,0,.18,0,.36,0,.55,0a1.28,1.28,0,0,0,1.25-1.25,1.26,1.26,0,0,0-1.25-1.25Z" transform="translate(7.74)"/><path class="cls-4" d="M699.06,54.13a4.44,4.44,0,0,0-2.76,1,3.51,3.51,0,0,0-1.16,1.95,4.47,4.47,0,0,0,1.74,4.49,4.42,4.42,0,0,0,2.44.81,3.52,3.52,0,0,0,2.47-.81,4.48,4.48,0,0,0,1.33-4.22,3.85,3.85,0,0,0-1.18-2.18,4.11,4.11,0,0,0-2.88-1,1.26,1.26,0,0,0-1.25,1.25,1.27,1.27,0,0,0,1.25,1.25h.48c.19,0-.36-.06,0,0l.24.06.2.06c.16.05-.16-.07-.16-.07a.25.25,0,0,0,.09,0l.37.23c-.33-.19-.18-.15-.08-.05l.14.12.12.14c.13.14-.17-.25-.1-.13l.06.1a2.48,2.48,0,0,1,.18.31c.13.24-.09-.26,0-.09s.05.15.07.22a2.37,2.37,0,0,1,.09.36s0,.06,0,.09,0-.21,0-.19a.57.57,0,0,1,0,.23c0,.12,0,.25,0,.37s0,.13,0,.19,0-.22,0-.2,0,.11,0,.14l-.09.36-.06.17,0,.09c-.06.18.15-.31.05-.14a2,2,0,0,1-.17.32l-.09.15c-.09.15.12-.18.11-.15s-.07.08-.08.1-.17.16-.25.24.29-.19.08-.06l-.18.11s-.13.09-.16.08.34-.12.17-.07l-.08,0-.18.05h-.09c-.19.06.35,0,.15,0h-.42l-.24,0c-.09,0-.21-.05.16,0l-.17,0a3.45,3.45,0,0,1-.43-.12c-.13,0-.26-.17.06,0l-.24-.12c-.11-.06-.22-.16-.34-.22s.26.22.14.1l-.08-.06c0-.05-.11-.1-.16-.16l-.15-.16-.06-.08s.2.28.11.14a3.37,3.37,0,0,1-.22-.35,1.74,1.74,0,0,1-.1-.19c-.08-.17.13.33,0,.08s-.08-.26-.11-.39a1.16,1.16,0,0,1,0-.18c0-.25,0,.35,0,.07a2.54,2.54,0,0,1,0-.39,1.48,1.48,0,0,0,0-.21c0,.42,0,.22,0,.07a4,4,0,0,1,.13-.41c0-.14-.15.29-.08.17l0-.1.12-.2.05-.07c.09-.17-.22.25-.09.11l.14-.16.16-.14c.12-.12-.15.11-.14.11l.12-.09.21-.12.1,0c.16-.09-.27.1-.13.06a3,3,0,0,1,.51-.15l.12,0c.23,0-.33,0-.09,0l.33,0a1.25,1.25,0,0,0,0-2.5Z" transform="translate(7.74)"/><path class="cls-4" d="M187,46l10.2,34.05,1.42,4.73a1.26,1.26,0,0,0,2.28.3l17.81-27.8,2.53-3.94c.87-1.36-1.3-2.62-2.16-1.26l-17.81,27.8-2.53,3.94,2.29.3-10.2-34.06-1.42-4.73A1.25,1.25,0,0,0,187,46Z" transform="translate(7.74)"/><path class="cls-4" d="M276.67,52.2C282,62,288.31,71.4,294.46,80.74c.6.92,1.21,1.84,1.82,2.75a1.26,1.26,0,0,0,2.28-.3l12-33.34,1.73-4.77c.54-1.52-1.87-2.17-2.41-.67l-12,33.34-1.72,4.78,2.29-.3c-5.15-7.74-10.21-15.56-15.06-23.5-1.56-2.57-3.11-5.15-4.55-7.79-.77-1.42-2.93-.16-2.16,1.26Z" transform="translate(7.74)"/><g class="cls-9"><path class="cls-3" d="M246.71,49.82l-12.61,13-1.76,1.81c-1.13,1.16.64,2.93,1.76,1.77l12.61-13,1.77-1.82c1.12-1.15-.64-2.92-1.77-1.76Z" transform="translate(7.74)"/><path class="cls-3" d="M259.31,49.53,239.8,71.08,237,74.17c-1.08,1.19.69,3,1.77,1.77L258.27,54.4l2.81-3.1c1.08-1.19-.69-3-1.77-1.77Z" transform="translate(7.74)"/><path class="cls-3" d="M267.09,56,245.5,79.57l-3,3.31c-1.08,1.18.68,3,1.77,1.77l21.59-23.56,3-3.3c1.08-1.19-.68-3-1.77-1.77Z" transform="translate(7.74)"/></g><polyline class="cls-2" points="239.33 54.24 257.83 88.09 273.98 52.89"/><path class="cls-3" d="M230.51,54.88l16.21,29.65L249,88.72a1.26,1.26,0,0,0,2.16,0l14.16-30.88,2-4.32c.67-1.45-1.48-2.72-2.15-1.26L251,83.13l-2,4.33h2.16L235,57.8l-2.29-4.19c-.77-1.41-2.93-.15-2.16,1.27Z" transform="translate(7.74)"/><path class="cls-3" d="M175.74,41.42c15.84,8.75,34.65,11.52,52.48,12.58a256.11,256.11,0,0,0,27.15.14,273.63,273.63,0,0,0,31.3-3,158.68,158.68,0,0,0,35.89-10.06c1.46-.62.81-3-.67-2.41A154.77,154.77,0,0,1,290.55,48a250.17,250.17,0,0,1-32.07,3.5c-17.89,1-36.14.6-53.77-2.83C195.13,46.79,185.58,44,177,39.27c-1.41-.78-2.67,1.38-1.26,2.15Z" transform="translate(7.74)"/><path class="cls-3" d="M426.19,55.9a12.94,12.94,0,0,0-9.63,7c-1.64,3.14-2,7.49,1.55,9.48s9.18,1.23,12.35-1A4.27,4.27,0,0,0,432,65.67a3.9,3.9,0,0,0-4.83-2.18c-2.08.71-3.67,2.56-4.94,4.27a14,14,0,0,0-2.63,4.92c-.53,2.29-.6,5.18.82,7.18s4,2.72,6.26,2.66c2.74-.09,10.44-2.93,7.84-6.88a5.05,5.05,0,0,0-5-1.91,5.28,5.28,0,0,0-3.2,2.45,9.2,9.2,0,0,0-.47,8.74c1.88,3.7,6.14,3.67,9.59,2.52a10.29,10.29,0,0,0,4.11-2.25c1.16-1.12-.61-2.89-1.77-1.77a9.78,9.78,0,0,1-5.87,2.27,4.23,4.23,0,0,1-2.93-.77c-1.52-1.24-1.74-3.6-1.33-5.41a5.82,5.82,0,0,1,1.15-2.5,2.07,2.07,0,0,1,1.86-.88c.59.06,2.16.56,1.67,1.32-.78,1.21-2.74,1.89-4,2.26a6.44,6.44,0,0,1-4.65-.29c-1.55-.78-1.89-2.42-1.86-4,.08-3.16,1.94-6,4.16-8.14.69-.67,2-1.93,3.07-1.37a1.93,1.93,0,0,1,.35,3.13c-2.17,1.88-6.39,2.31-9.06,1.55-3-.86-2.88-3.92-1.7-6.27,1.43-2.87,4.27-5.5,7.56-5.9,1.58-.18,1.6-2.69,0-2.5Z" transform="translate(7.74)"/><path class="cls-4" d="M121.75,73.22l4.12,10.23.6,1.48a1.28,1.28,0,0,0,1.54.87,1.25,1.25,0,0,0,.87-1.53L124.76,74l-.6-1.47a1.29,1.29,0,0,0-1.54-.88,1.26,1.26,0,0,0-.87,1.54Z" transform="translate(7.74)"/><g class="cls-10"><path class="cls-3" d="M104.5,65.48l10.22-15.94,1.45-2.27c.88-1.36-1.29-2.61-2.15-1.26L103.79,62l-1.45,2.27c-.87,1.35,1.29,2.61,2.16,1.26Z" transform="translate(7.74)"/><path class="cls-3" d="M107.8,73.71l11.74-18.63,1.64-2.62c.86-1.36-1.3-2.62-2.16-1.26L107.29,69.84l-1.65,2.61c-.86,1.36,1.3,2.62,2.16,1.26Z" transform="translate(7.74)"/><path class="cls-3" d="M112.44,79.53l10.71-17,1.5-2.39c.86-1.36-1.3-2.62-2.16-1.26l-10.71,17-1.5,2.38c-.86,1.37,1.3,2.63,2.16,1.27Z" transform="translate(7.74)"/></g><path class="cls-2" d="M101.3,53.69l8.91,23.5,14.45-5.26c-3.32-9-9.9-23.68-9.9-23.68" transform="translate(7.74)"/><path class="cls-3" d="M100.09,54l7.79,20.54,1.12,3a1.27,1.27,0,0,0,1.54.87L125,73.13a1.26,1.26,0,0,0,.87-1.53c-3-8.12-6.5-16.08-10-24-.65-1.47-2.81-.2-2.16,1.26,3.45,7.71,6.83,15.47,9.78,23.38l.87-1.54L109.88,76l1.53.87-7.79-20.54-1.12-3c-.56-1.49-3-.85-2.41.66Z" transform="translate(7.74)"/><path class="cls-3" d="M99.83,54.47c.45-6.39,1-12.74,2.68-18.95l-1.84.75A146.18,146.18,0,0,1,116,47.85l.25-2a46.68,46.68,0,0,1-8.92,4.37,80.72,80.72,0,0,1-9.1,3,1.25,1.25,0,0,0,.66,2.41,83.09,83.09,0,0,0,9.38-3.11,49.09,49.09,0,0,0,9.24-4.51,1.27,1.27,0,0,0,.25-2,149.94,149.94,0,0,0-15.85-12,1.26,1.26,0,0,0-1.84.75c-1.75,6.41-2.29,13-2.76,19.61-.12,1.6,2.38,1.59,2.5,0Z" transform="translate(7.74)"/><path class="cls-3" d="M154.74,66.33c5.13-4.91,10.07-10,15-15.14,1.11-1.16-.65-2.93-1.77-1.77-4.91,5.13-9.85,10.23-15,15.15-1.17,1.11.6,2.88,1.76,1.76Z" transform="translate(7.74)"/><path class="cls-7" d="M146.81,62.63c1.86-7.43,4.92-14.53,6.4-22.07.31-1.57-2.1-2.25-2.41-.67-1.48,7.54-4.54,14.64-6.4,22.08a1.25,1.25,0,0,0,2.41.66Z" transform="translate(7.74)"/><path class="cls-4" d="M138.15,60.43c-.64-7.57-3-14.76-4-21.92" transform="translate(7.74)"/><path class="cls-4" d="M139.4,60.43c-.67-7.54-2.94-14.79-4.07-22.25-.24-1.59-2.65-.91-2.41.66,1.1,7.24,3.33,14.28,4,21.59.14,1.59,2.64,1.61,2.5,0Z" transform="translate(7.74)"/><g class="cls-11"><path class="cls-3" d="M0,12.7C.59,11.48,1.44,9.58,2.82,9A2.16,2.16,0,0,1,5,9.61c1.88,1.48,3.1,3.66,4.74,5.36a6.48,6.48,0,0,0,5.84,2.16c2-.44,3.4-2.18,4.55-3.76,1.26-1.75,2.36-3.75,4.08-5.11a5.32,5.32,0,0,1,5.94-.38C32,8.92,33.25,10.71,35,12a5.14,5.14,0,0,0,5.85.29,8.73,8.73,0,0,0,3.35-3.2,23.54,23.54,0,0,1,2.08-3.58,3.81,3.81,0,0,1,4.12-.92c1.82.58,2.76,2.44,3.37,4.1.55,1.5,3,.86,2.41-.66-1.22-3.32-3.29-6-7.05-6.14-3.21-.14-5,1.95-6.35,4.57-.93,1.79-2.94,4.87-5.41,4-1.83-.62-3.16-2.73-4.66-3.88A8.42,8.42,0,0,0,25.34,4.9c-2.36.66-4,2.52-5.44,4.42-1.21,1.65-2.27,3.84-4,5S12.22,14,11,12.7C9.26,10.7,7.74,8,5.23,6.83c-3.52-1.64-6,1.84-7.41,4.61C-2.9,12.87-.75,14.14,0,12.7Z" transform="translate(7.74)"/><path class="cls-3" d="M-4.44,23c.62-1.1,1.49-2.86,2.78-3.35.56-.21,1,.06,1.53.53C1.55,21.75,2.51,24,3.79,25.89a7.94,7.94,0,0,0,5.74,3.77,6.81,6.81,0,0,0,5.64-2.33,68.33,68.33,0,0,0,4.19-5.4c1.24-1.55,2.78-3.12,4.91-3,5,.18,6.72,7.19,11.89,7,3.52-.16,6.24-3.36,7.73-6.24a5.49,5.49,0,0,1,4-3.17,6.57,6.57,0,0,1,6.26,2c1.1,1.17,2.87-.6,1.77-1.77a9.21,9.21,0,0,0-11.08-1.79,7.62,7.62,0,0,0-3.09,3.43,10.54,10.54,0,0,1-3.06,3.82,4,4,0,0,1-3.37,1.1,6.65,6.65,0,0,1-2.75-1.91c-1.87-1.81-3.66-4-6.27-4.69-5.51-1.53-8.52,3.26-11.34,7.06-1.12,1.5-2.57,3.39-4.61,3.47-2.41.09-3.82-1.69-5-3.51C4,21.61,2.73,18.77.44,17.55c-3.2-1.71-5.69,1.82-7,4.22A1.25,1.25,0,0,0-4.44,23Z" transform="translate(7.74)"/><path class="cls-3" d="M-5.57,36.85c1.68-1.5,3.8-3,6.13-2.17,1.81.6,3.28,2,4.8,3.15A9.82,9.82,0,0,0,11.13,40a9.76,9.76,0,0,0,6.62-3c1.68-1.67,2.86-3.78,4.53-5.46s3.25-1.48,5.09-.14c2.43,1.76,4,4.17,5.94,6.39,1.48,1.7,3.38,2.47,5.46,1.28a17.56,17.56,0,0,0,4.1-4A44.35,44.35,0,0,1,47,30.81a10.32,10.32,0,0,1,5-2.7c2.19-.31,3.89,1,5.24,2.6,1.06,1.22,2.82-.55,1.77-1.77-2.47-2.87-5.86-4.2-9.48-2.69-3.31,1.39-5.85,4.21-8.2,6.82-1.16,1.3-3.67,5.42-5.67,3.55a24.81,24.81,0,0,1-2.35-2.86A24.28,24.28,0,0,0,30,30.29C28,28.6,25.46,27,22.8,28.13c-2.15.9-3.51,3-4.88,4.82-1.52,2-3.24,3.93-5.8,4.47-2.08.43-3.87-.56-5.5-1.74C4.79,34.35,3,32.69.78,32.14c-3.11-.75-5.88.94-8.12,2.94-1.2,1.08.57,2.84,1.77,1.77Z" transform="translate(7.74)"/><path class="cls-3" d="M-.76,47.87C.86,46.34,2.76,45.05,5,46c1.86.76,3.38,2.18,5.22,3a8,8,0,0,0,6.38.23A11.12,11.12,0,0,0,21,45.26c.78-1,1.71-2.8,3.12-3.09,1.92-.38,4.2,1.89,5.38,3.12s2.33,3.09,4,4c2,1.11,4.28.37,6.19-.61,2.81-1.45,5-3.6,7.47-5.47a8.15,8.15,0,0,1,3.68-1.83c1.6-.19,2.77,1,3.62,2.21s3.08.06,2.16-1.26c-1.65-2.35-4-4-6.93-3.27-2.63.67-4.75,2.72-6.77,4.41a25,25,0,0,1-3.63,2.57,7.2,7.2,0,0,1-3.63,1.33c-1.69-.09-2.83-2.14-3.83-3.27C29,41,24.31,37.62,20.74,41.5,19.43,42.94,18.52,44.72,17,46a5.27,5.27,0,0,1-5.66.75c-2.15-.91-3.86-2.64-6.12-3.35-3-.93-5.67.68-7.79,2.69-1.17,1.11.6,2.87,1.77,1.77Z" transform="translate(7.74)"/><path class="cls-3" d="M3.25,58.39c1.71-1.14,3.36-1.68,5.29-.82A33.8,33.8,0,0,0,13,59.69c4.06,1.17,7-1.35,9.39-4.31,1-1.32,2.15-2.82,3.74-3.52a5.33,5.33,0,0,1,5.14.65c3.26,2.06,6.44,5.48,10.66,3.72,2-.81,3.47-2.32,5.23-3.45,2-1.28,3.54-1.2,5.25.5a1.25,1.25,0,0,0,1.77-1.77c-1.55-1.54-3.5-2.58-5.72-2.06a13.42,13.42,0,0,0-4.77,2.78c-1.49,1.11-3.06,2.31-5,1.88s-3.65-2-5.31-3.2A8.69,8.69,0,0,0,27.59,49a8,8,0,0,0-5.1,2.42c-2.44,2.4-4.45,7-8.62,6-1.88-.47-3.4-1.81-5.23-2.42A7.55,7.55,0,0,0,2,56.23c-1.33.9-.08,3.06,1.26,2.16Z" transform="translate(7.74)"/></g><path class="cls-2" d="M21.37,1.88C-9.6,5.14-4,68.42,32.67,58.78c29.18-7.72,23-64.08-11.3-56.9" transform="translate(7.74)"/><path class="cls-3" d="M21.37.63A21.62,21.62,0,0,0,7,8.1,30.57,30.57,0,0,0,.5,23.2c-1.72,11,.89,24,9.36,31.81,9.06,8.37,24,7.73,33.07-.37S54.2,32.53,51.37,21.12A30.33,30.33,0,0,0,42.81,6,23.11,23.11,0,0,0,26.35,0,31.74,31.74,0,0,0,21,.68c-1.58.32-.91,2.73.66,2.41,5.71-1.18,11.68-.61,16.66,2.59A24.64,24.64,0,0,1,47.79,18c3.8,10.17,3,23.08-3.81,31.84S23.51,61.44,14.13,55.22c-8.75-5.81-12-17.51-11.59-27.5C3,17.94,7.52,7.06,17.6,3.92a20.22,20.22,0,0,1,3.77-.79C23,3,23,.45,21.37.63Z" transform="translate(7.74)"/><path class="cls-3" d="M21.2,59.46A40,40,0,0,1,17.25,69,1.26,1.26,0,0,0,18,70.8a9.31,9.31,0,0,0,2.26.54c1.11.17,2.22.29,3.33.35a24.83,24.83,0,0,0,3.11,0,7.73,7.73,0,0,0,2.48-.42A1.28,1.28,0,0,0,30,69.75c-.6-3.17-1.68-6.26-2-9.48A1.29,1.29,0,0,0,26.8,59a1.26,1.26,0,0,0-1.25,1.25C25.89,63.73,27,67,27.63,70.41l.88-1.54a4.92,4.92,0,0,1-.91.25c-.05,0-.37,0-.05,0l-.31,0-.66,0a25,25,0,0,1-3,0c-.51,0-1-.07-1.52-.12L21.3,69l-.15,0-.35-.06a9.29,9.29,0,0,1-2.14-.52l.74,1.84a42.06,42.06,0,0,0,4.21-10.11,1.25,1.25,0,0,0-2.41-.66Z" transform="translate(7.74)"/><path class="cls-4" d="M49,29.52c-28.31,8.73-7.75,60.65,13.81,45.65C87.54,58,73.87,20.41,49,29.52" transform="translate(7.74)"/><path class="cls-4" d="M48.65,28.32a20.33,20.33,0,0,0-11.2,8.25,24.26,24.26,0,0,0-3.53,12.79c-.13,8.87,3.31,18.57,9.8,24.77a16.82,16.82,0,0,0,10.33,5c4.84.32,9.05-2.27,12.57-5.34,8.79-7.7,12.76-20.14,9.16-31.39A23.46,23.46,0,0,0,67.3,30.31a19.18,19.18,0,0,0-14.36-3.13,24.44,24.44,0,0,0-4.29,1.14c-1.5.54-.85,3,.67,2.41,4.54-1.63,9.57-2,14,.14a19.26,19.26,0,0,1,8.91,9.34c4.43,9.34,2.39,20.87-4.27,28.62-2.95,3.43-7,7.06-11.68,7.7a12.54,12.54,0,0,1-9.23-2.79c-6.33-4.82-9.85-13.4-10.54-21.14-.73-8.18,1.93-16.69,9.64-20.62a20.75,20.75,0,0,1,3.14-1.25c1.53-.48.87-2.9-.67-2.41Z" transform="translate(7.74)"/><path class="cls-4" d="M51.61,77.32c-1.53,2.56-1.87,5.55-3.14,8.2-.31.65-.12,1.71.75,1.84a35.28,35.28,0,0,0,10.7.48c.72-.11,1-.94.87-1.54-.46-2.86-2-5.47-2.3-8.34a1.28,1.28,0,0,0-1.25-1.25A1.25,1.25,0,0,0,56,78c.36,3.12,1.9,5.92,2.39,9l.88-1.54A32.3,32.3,0,0,1,49.88,85l.75,1.83c1.27-2.64,1.62-5.66,3.13-8.19a1.25,1.25,0,0,0-2.15-1.27Z" transform="translate(7.74)"/><path class="cls-4" d="M64.26,35.39a6.51,6.51,0,0,0-4,1.37,5.1,5.1,0,0,0-1.71,2.89,6.56,6.56,0,0,0,2.52,6.53,6,6,0,0,0,7.17.13,6.57,6.57,0,0,0,2-6.21,5.66,5.66,0,0,0-1.75-3.27,5.94,5.94,0,0,0-4.22-1.44A1.28,1.28,0,0,0,63,36.64a1.26,1.26,0,0,0,1.25,1.25c.27,0,.54,0,.81,0s-.19,0,0,0l.18,0,.39.09.33.11c.2.06,0,0-.07,0l.15.07c.22.11.41.25.62.37-.29-.17,0,0,0,0a2.28,2.28,0,0,1,.22.22c.08.07.14.15.21.22s-.09-.18,0,0,.08.11.11.16a3.88,3.88,0,0,1,.3.52c.16.3,0-.14,0,.06s.09.23.12.36a5.66,5.66,0,0,1,.15.59c0,.16,0,.32,0,.06,0,.12,0,.25,0,.38s0,.42,0,.62l0,.31c0,.22,0-.08,0-.1a1.85,1.85,0,0,0,0,.23,5.66,5.66,0,0,1-.15.59l-.09.29-.06.15c-.08.25.14-.26,0,0s-.18.36-.28.53l-.17.24c-.1.18,0-.05.07-.07S67,44,67,44.05s-.28.26-.42.4.22-.14,0,0l-.31.19L66,44.8c.23-.12.1,0,0,0l-.29.08-.15,0c-.26.07.29,0,0,0s-.47,0-.7,0l-.4,0c-.06,0-.24,0,0,0l-.28-.05a4.72,4.72,0,0,1-.71-.2c-.09,0-.39-.19-.11,0l-.39-.2c-.2-.11-.38-.24-.57-.37.23.16,0,0-.07-.07a3.07,3.07,0,0,1-.26-.25l-.25-.27-.11-.13s.17.24.05.06-.25-.38-.36-.58-.11-.22-.16-.32.08.24,0-.07-.14-.43-.2-.65l-.06-.3c-.06-.3,0,.26,0-.1a4.71,4.71,0,0,1,0-.65c0-.11,0-.23,0-.34,0,.37,0,0,0-.12s.17-.46.21-.69-.13.21,0,.1a.65.65,0,0,0,.08-.17l.19-.33.09-.12c.13-.23-.19.2,0,0s.15-.18.23-.26l.26-.24c.15-.14,0,0-.07.05l.2-.14.37-.21.15-.07c.2-.11-.16,0,0,0s.56-.18.86-.24l.19,0c.33-.06-.26,0,.08,0l.54,0a1.25,1.25,0,0,0,0-2.5Z" transform="translate(7.74)"/><path class="cls-4" d="M68.06,47.87a4.38,4.38,0,0,0-2.76,1,3.51,3.51,0,0,0-1.16,1.95,4.46,4.46,0,0,0,1.75,4.48,4.35,4.35,0,0,0,2.43.82,3.6,3.6,0,0,0,2.48-.82,4.48,4.48,0,0,0,1.33-4.21A3.94,3.94,0,0,0,71,48.87a4.06,4.06,0,0,0-2.89-1,1.25,1.25,0,0,0,0,2.5,4,4,0,0,1,.49,0c.18,0-.36-.07,0,0l.23,0,.2.07c.17,0-.16-.07-.16-.07l.09,0,.37.22c-.32-.19-.17-.14-.07,0l.13.13.12.14c.14.14-.16-.25-.09-.13a.47.47,0,0,0,.06.09,3.3,3.3,0,0,1,.18.32c.12.23-.09-.27,0-.09s0,.14.07.22a1.9,1.9,0,0,1,.09.36s0,.06,0,.09,0-.21,0-.2,0,.18,0,.23,0,.25,0,.38,0,.12,0,.18,0-.21,0-.19a.34.34,0,0,1,0,.14,2,2,0,0,1-.09.35,1.21,1.21,0,0,1,0,.18l0,.08c-.06.19.15-.3.06-.13l-.17.32-.1.14c-.09.15.12-.17.12-.14l-.09.1-.24.24c-.1.1.29-.2.08-.06s-.12.08-.19.11-.12.09-.16.08.35-.12.18-.08l-.09,0-.17,0-.09,0c-.19,0,.35,0,.14,0a2.81,2.81,0,0,1-.41,0h-.24c-.1,0-.21-.06.15,0l-.16,0-.43-.11c-.13-.05-.27-.17.05,0l-.23-.11a3.26,3.26,0,0,0-.34-.22l.13.1-.07-.07L67.09,53a1.22,1.22,0,0,1-.15-.17l-.07-.07s.21.28.11.14l-.22-.35-.09-.2c-.09-.17.12.34,0,.08s-.09-.25-.12-.38l0-.19c0-.24,0,.36,0,.08a2.54,2.54,0,0,1,0-.39c0-.07,0-.14,0-.21,0,.42,0,.21,0,.06s.08-.27.12-.41-.14.29-.07.18l0-.11.11-.19a.35.35,0,0,0,0-.08c.1-.16-.21.25-.08.11l.14-.15.15-.14c.13-.12-.14.1-.14.1a.5.5,0,0,0,.12-.08l.22-.13.09,0c.17-.09-.26.09-.13,0s.34-.11.52-.15l.11,0c.23,0-.33,0-.08,0l.32,0a1.25,1.25,0,0,0,0-2.5Z" transform="translate(7.74)"/></g></g></svg>