<svg xmlns="http://www.w3.org/2000/svg" xmlns:xlink="http://www.w3.org/1999/xlink" viewBox="0 0 492.63 61.74"><defs><style>.cls-1,.cls-2{fill:none;stroke-miterlimit:10;}.cls-1{stroke:#b53e4b;stroke-width:0.5px;}.cls-2{stroke:#035e97;}.cls-3{fill:#035e97;}.cls-4{fill:#b53e4b;}.cls-5{fill:#d09027;}.cls-6{clip-path:url(#clip-path);}.cls-7{clip-path:url(#clip-path-2);}.cls-8{clip-path:url(#clip-path-3);}.cls-9{clip-path:url(#clip-path-4);}.cls-10{clip-path:url(#clip-path-5);}.cls-11{clip-path:url(#clip-path-6);}</style><clipPath id="clip-path"><path class="cls-1" d="M433.46,40.42c9.56-10.34,12.3-14.32,22.41-24.64.47,12.14,1.19,21.72,1,33.49-7.14,1-19.12-1.27-23.44-8.85"/></clipPath><clipPath id="clip-path-2"><polyline class="cls-2" points="297.2 33.24 309.5 57.03 321.27 32.87"/></clipPath><clipPath id="clip-path-3"><path class="cls-2" d="M375.6,13.59l-7,19.8,12.06,4.47c2.73-7.51,6.51-20.45,6.51-20.45"/></clipPath><clipPath id="clip-path-4"><polyline class="cls-2" points="139 32.61 155.68 48.82 158.73 25.67"/></clipPath><clipPath id="clip-path-5"><path class="cls-2" d="M78.48,20l5.36,12.4,7.63-3.18c-2-4.73-5.89-12.47-5.89-12.47"/></clipPath><clipPath id="clip-path-6"><path class="cls-1" d="M37.6,48.12C47.16,37.78,49.9,33.8,60,23.48,60.48,35.62,61.2,45.21,61,57c-7.14,1-19.12-1.26-23.44-8.85"/></clipPath></defs><g id="Layer_2" data-name="Layer 2"><g id="OBJECTS"><path class="cls-3" d="M10.31,22.55a12.28,12.28,0,0,0-9.17,6.61c-1.58,3-1.89,7.16,1.48,9.07s8.67,1.17,11.7-.9A4.11,4.11,0,0,0,16,32.08a3.82,3.82,0,0,0-4.62-2.39c-2,.59-3.51,2.34-4.72,3.92a14.35,14.35,0,0,0-2.61,4.75c-.56,2.16-.6,5,.71,6.9a7,7,0,0,0,6.06,2.61c2.65-.1,10-2.83,7.44-6.61-2-3-6.1-2.19-7.83.45A8.78,8.78,0,0,0,9.92,50c1.73,3.5,5.75,3.64,9,2.55A10.24,10.24,0,0,0,23,50.38c1.17-1.11-.6-2.87-1.77-1.76C19.53,50.27,15.12,51.79,13,50c-1.39-1.17-1.58-3.37-1.19-5.06a5.55,5.55,0,0,1,1.05-2.29,1.88,1.88,0,0,1,1.67-.82c.49,0,2,.5,1.57,1.16-.76,1.11-2.51,1.73-3.74,2.09a5.93,5.93,0,0,1-4.56-.36c-1.41-.81-1.61-2.44-1.54-3.94.15-2.91,2-5.61,4.09-7.54.64-.59,1.81-1.63,2.72-1.07a1.76,1.76,0,0,1,.06,3,10.44,10.44,0,0,1-8.47,1.26C2,35.53,2.14,32.74,3.2,30.61c1.34-2.7,4-5.19,7.11-5.56,1.58-.19,1.59-2.69,0-2.5Z"/><path class="cls-4" d="M239.31,29.61a51.41,51.41,0,0,1-9.76-6.84c-2.23-2-4.58-4.45-5.59-7.35a5.77,5.77,0,0,1,1.71-6.49c1.59-1.15,3.64-.41,5.08.6a8.94,8.94,0,0,1,3.79,6.15H237a9.81,9.81,0,0,1,2-7.81c1.27-1.45,3.27-2.66,5.27-2.15,2.33.6,3.26,3.22,3.26,5.39,0,3.18-1.35,6.32-2.83,9.07a46.49,46.49,0,0,1-7,9.62c-1.1,1.18.67,2.95,1.77,1.77A48.62,48.62,0,0,0,247,21.28c1.73-3.24,3.29-7,3.08-10.76-.17-2.95-1.67-6-4.58-7-2.63-1-5.49.1-7.49,1.9a11.85,11.85,0,0,0-3.48,10.3c.19,1.56,2.66,1.61,2.5,0-.49-4.95-5.58-11.27-11.16-9.6-2.87.86-4.73,4.15-4.83,7-.11,3.49,2.22,6.7,4.44,9.15a48.42,48.42,0,0,0,12.56,9.51c1.41.78,2.67-1.37,1.26-2.15Z"/><path class="cls-3" d="M213,47a38.45,38.45,0,0,1-8.3-4.24c-1.86-1.28-3.93-2.93-4.83-5.07a4.06,4.06,0,0,1,1-4.52c1-.75,2.41-.43,3.55.21a6.54,6.54,0,0,1,3.23,4.08l2.41-.66A7.12,7.12,0,0,1,211,30.7c.82-1.14,2.28-2.18,3.74-1.73,1.68.5,2.35,2.43,2.43,4a17.41,17.41,0,0,1-1.4,6.93,35.76,35.76,0,0,1-4.13,7.65c-.92,1.33,1.25,2.58,2.16,1.27a38.47,38.47,0,0,0,4.43-8.39,17.57,17.57,0,0,0,1.32-8.58,6.3,6.3,0,0,0-4.14-5.31,6,6,0,0,0-5.93,2.06,9.55,9.55,0,0,0-1.78,8.84,1.25,1.25,0,0,0,2.41-.66c-.92-3.81-5.55-7.85-9.64-6.21-2.23.9-3.49,3.6-3.35,5.92.17,2.78,2.22,5.1,4.25,6.8a37.76,37.76,0,0,0,11,6.1c1.51.57,2.16-1.85.67-2.41Z"/><path class="cls-3" d="M42.87,8.2C40.35,5.62,37.72,3.14,35.09.66a1.29,1.29,0,0,0-1.77,0,1.28,1.28,0,0,0,0,1.77C36,4.9,38.58,7.39,41.1,10A1.25,1.25,0,1,0,42.87,8.2Z"/><path class="cls-5" d="M40.85,12.19c-3.76-.87-7.34-2.35-11.15-3a1.28,1.28,0,0,0-1.53.88A1.24,1.24,0,0,0,29,11.58c3.8.67,7.39,2.15,11.14,3,1.57.36,2.24-2,.67-2.41Z"/><path class="cls-4" d="M39.67,17.27c-3.78.43-7.35,1.72-10.93,2.37"/><path class="cls-4" d="M39.67,16c-3.83.45-7.48,1.72-11.26,2.42A1.24,1.24,0,0,0,27.54,20a1.28,1.28,0,0,0,1.53.88c3.56-.66,7-1.9,10.6-2.33a1.29,1.29,0,0,0,1.25-1.25A1.26,1.26,0,0,0,39.67,16Z"/><g class="cls-6"><path class="cls-4" d="M448.26,19.9l8,10.57L457.41,32a1.29,1.29,0,0,0,1.71.45,1.26,1.26,0,0,0,.45-1.71l-8-10.58-1.16-1.53a1.29,1.29,0,0,0-1.71-.44,1.26,1.26,0,0,0-.45,1.71Z"/><path class="cls-4" d="M441.4,28.66c5.31,7,10.73,14,16.19,20.91,1,1.26,2.76-.51,1.77-1.76-5.33-6.75-10.62-13.54-15.8-20.41-.95-1.27-3.13,0-2.16,1.26Z"/><path class="cls-4" d="M433.29,35.61l11.6,15.62,1.62,2.2a1.31,1.31,0,0,0,1.72.44,1.26,1.26,0,0,0,.44-1.71L437.08,36.54l-1.63-2.19a1.29,1.29,0,0,0-1.71-.45,1.27,1.27,0,0,0-.45,1.71Z"/><path class="cls-4" d="M444.22,24l11.4,14.46,1.59,2a1.27,1.27,0,0,0,1.77,0,1.29,1.29,0,0,0,0-1.77l-11.4-14.46-1.6-2a1.26,1.26,0,0,0-1.76,0,1.28,1.28,0,0,0,0,1.77Z"/><path class="cls-4" d="M437.71,32.51l12.67,17,1.78,2.39c.95,1.28,3.12,0,2.16-1.26l-12.67-17-1.78-2.39c-.95-1.27-3.12,0-2.16,1.26Z"/></g><path class="cls-1" d="M433.46,40.42c9.56-10.34,12.3-14.32,22.41-24.64.47,12.14,1.19,21.72,1,33.49-7.14,1-19.12-1.27-23.44-8.85"/><path class="cls-4" d="M434.35,41.31c7.53-8.17,14.63-16.7,22.4-24.64l-2.13-.89c.44,11.16,1.17,22.31,1,33.49L456.9,48a29.17,29.17,0,0,1-12.14-1.08c-4-1.21-8-3.41-10.22-7.15a1.25,1.25,0,0,0-2.16,1.26c4.64,7.92,16,10.59,24.52,9.47a1.29,1.29,0,0,0,1.25-1.25c.14-11.18-.59-22.33-1-33.49A1.26,1.26,0,0,0,455,14.9c-7.78,7.94-14.88,16.48-22.41,24.64-1.09,1.18.67,3,1.77,1.77Z"/><path class="cls-4" d="M456.47,10.23l-3.33,10a1.25,1.25,0,0,0,2.42.66q1.65-5,3.32-10a1.25,1.25,0,0,0-2.41-.67Z"/><path class="cls-4" d="M450.39,15.07l10.49,3.66a1.25,1.25,0,0,0,.67-2.41l-10.49-3.66a1.25,1.25,0,0,0-.67,2.41Z"/><path class="cls-4" d="M452.46,10.84l4.61,9.25.66,1.31a1.27,1.27,0,0,0,1.71.45,1.28,1.28,0,0,0,.45-1.71l-4.62-9.25-.66-1.31a1.25,1.25,0,1,0-2.15,1.26Z"/><path class="cls-4" d="M460.21,12A76.63,76.63,0,0,0,450.55,17a1.27,1.27,0,0,0-.45,1.71,1.26,1.26,0,0,0,1.71.45,74.81,74.81,0,0,1,9.67-5.08,1.26,1.26,0,0,0,.44-1.71,1.29,1.29,0,0,0-1.71-.45Z"/><path class="cls-4" d="M266,26.92l6.52,23.78.92,3.33a1.26,1.26,0,0,0,2.28.29l12.79-19,1.84-2.73c.9-1.33-1.27-2.59-2.16-1.26l-12.79,19-1.84,2.72,2.29.3-6.52-23.77-.92-3.33a1.25,1.25,0,0,0-2.41.66Z"/><path class="cls-4" d="M328.2,32.76c3.91,7.58,8.55,14.83,13.1,22a1.27,1.27,0,0,0,2.29-.3l8.91-23,1.25-3.22c.58-1.5-1.84-2.15-2.41-.67l-8.92,23-1.24,3.22,2.28-.3c-4.55-7.2-9.2-14.45-13.1-22-.74-1.43-2.9-.17-2.16,1.26Z"/><g class="cls-7"><path class="cls-3" d="M307.48,30.16l-8.94,8.78-1.27,1.24c-1.15,1.13.62,2.9,1.77,1.77L308,33.17l1.27-1.24c1.15-1.13-.62-2.9-1.77-1.77Z"/><path class="cls-3" d="M316.23,30.17,302.35,44.79l-2,2.12c-1.11,1.16.65,2.93,1.76,1.76L316,34.05l2-2.12c1.11-1.16-.66-2.93-1.77-1.76Z"/><path class="cls-3" d="M321.53,34.79l-15.33,16L304,53c-1.12,1.16.65,2.93,1.76,1.76l15.33-16,2.19-2.28c1.12-1.16-.65-2.93-1.76-1.77Z"/></g><polyline class="cls-2" points="297.2 33.24 309.5 57.03 321.27 32.87"/><path class="cls-3" d="M296.12,33.88l10.75,20.79,1.55,3a1.26,1.26,0,0,0,2.16,0l10.29-21.13,1.48-3c.7-1.44-1.46-2.71-2.16-1.27l-10.3,21.14-1.47,3h2.16L299.82,35.6l-1.54-3c-.74-1.43-2.9-.16-2.16,1.27Z"/><path class="cls-3" d="M258.47,23.79c10.85,6.3,23.8,8.54,36.14,9.59a175.86,175.86,0,0,0,18.93.56,191.64,191.64,0,0,0,21.68-1.51A110.62,110.62,0,0,0,360.66,26c1.49-.58.84-3-.66-2.41-14.23,5.58-29.22,7.33-44.39,7.82-12.38.41-25-.19-37.11-2.87a65.18,65.18,0,0,1-18.76-6.88,1.25,1.25,0,0,0-1.27,2.16Z"/><path class="cls-4" d="M377.81,37.22,374.9,46l-.41,1.24a1.26,1.26,0,0,0,.87,1.54,1.28,1.28,0,0,0,1.54-.87l2.91-8.78.42-1.25a1.26,1.26,0,0,0-.88-1.53,1.28,1.28,0,0,0-1.54.87Z"/><g class="cls-8"><path class="cls-3" d="M371.25,23.05l15.1-4.61,2.2-.67c1.54-.47.88-2.89-.66-2.41L372.78,20l-2.2.67c-1.53.47-.88,2.88.67,2.41Z"/><path class="cls-3" d="M368.9,30.09l17.52-5.51,2.51-.79c1.53-.48.88-2.9-.66-2.41l-17.52,5.51-2.52.79c-1.53.48-.87,2.89.67,2.41Z"/><path class="cls-3" d="M368.71,36.31l16-5,2.3-.72c1.53-.48.88-2.9-.66-2.41l-16,5-2.3.72c-1.53.48-.87,2.89.67,2.41Z"/></g><path class="cls-2" d="M375.6,13.59l-7,19.8,12.06,4.47c2.73-7.51,6.51-20.45,6.51-20.45"/><path class="cls-3" d="M374.4,13.25l-6.14,17.29-.9,2.52a1.28,1.28,0,0,0,.87,1.54l12.07,4.47a1.26,1.26,0,0,0,1.53-.87c2.44-6.73,4.51-13.6,6.51-20.46a1.25,1.25,0,0,0-2.41-.66c-2,6.86-4.07,13.73-6.51,20.45l1.54-.87L368.9,32.19l.87,1.53,6.15-17.29.89-2.51c.54-1.52-1.87-2.17-2.41-.67Z"/><path class="cls-3" d="M374.34,13.49A81.7,81.7,0,0,1,386.25,2.87l-1.83-.75a124.68,124.68,0,0,1,3.57,16l1.2-1.58a39,39,0,0,1-7.86-2,67.81,67.81,0,0,1-7.25-2.93c-1.44-.7-2.71,1.46-1.26,2.16a73.22,73.22,0,0,0,7.85,3.18A41.85,41.85,0,0,0,389.19,19c.89.1,1.32-.88,1.21-1.59a124.15,124.15,0,0,0-3.57-15.95A1.27,1.27,0,0,0,385,.71a85.45,85.45,0,0,0-12.42,11c-1.13,1.15.64,2.92,1.77,1.77Z"/><path class="cls-3" d="M412.59,47.94a32.27,32.27,0,0,1-7-3.58,10.78,10.78,0,0,1-4-4.18,3,3,0,0,1-.09-2.18,3.55,3.55,0,0,1,.4-.94,1.46,1.46,0,0,1,.19-.26s.36-.32.25-.24a1.22,1.22,0,0,1,.61-.28,1.56,1.56,0,0,1,.67,0,3.38,3.38,0,0,1,.72.15,3.89,3.89,0,0,1,.82.35,5.38,5.38,0,0,1,2.65,3.35l2.41-.67a5.84,5.84,0,0,1,.73-5,2.93,2.93,0,0,1,3-1.38c1.28.42,1.85,1.91,1.91,3.21a14.44,14.44,0,0,1-1.18,5.83,30.31,30.31,0,0,1-3.47,6.44c-.92,1.32,1.24,2.57,2.16,1.26a32.54,32.54,0,0,0,3.76-7.15,14.93,14.93,0,0,0,1.13-7.37,5.52,5.52,0,0,0-3.65-4.63,5.19,5.19,0,0,0-5.2,1.79,8.26,8.26,0,0,0-1.56,7.68,1.25,1.25,0,0,0,2.41-.67c-.81-3.32-4.84-6.81-8.41-5.39a5.33,5.33,0,0,0-3,5.2c.14,2.41,1.89,4.42,3.65,5.9a32.46,32.46,0,0,0,9.42,5.22c1.51.56,2.16-1.85.67-2.41Z"/><path class="cls-3" d="M420.38,20.83c3.56-3.41,7-7,10.4-10.51,1.11-1.17-.65-2.94-1.77-1.77-3.41,3.56-6.84,7.1-10.4,10.51-1.16,1.12.61,2.88,1.77,1.77Z"/><path class="cls-5" d="M415,18.09c1.3-5.16,3.42-10.09,4.45-15.32.3-1.57-2.11-2.25-2.42-.67-1,5.24-3.14,10.16-4.44,15.33a1.25,1.25,0,0,0,2.41.66Z"/><path class="cls-4" d="M408.59,16.46c-.44-5.25-2-10.25-2.79-15.22"/><path class="cls-4" d="M409.84,16.46c-.47-5.27-2-10.33-2.84-15.55A1.25,1.25,0,0,0,405.46,0a1.28,1.28,0,0,0-.87,1.54c.76,5,2.3,9.84,2.75,14.88.14,1.59,2.64,1.61,2.5,0Z"/><path class="cls-3" d="M295.71,7.08A8.88,8.88,0,0,0,289,11.94c-1.15,2.29-1.25,5.36,1.32,6.73,2.39,1.27,6.21.81,8.4-.71a3.21,3.21,0,0,0,1.22-4.19A3,3,0,0,0,296.32,12a7.52,7.52,0,0,0-3.42,2.84,10.49,10.49,0,0,0-1.87,3.4,6.51,6.51,0,0,0,.54,5.08,5.16,5.16,0,0,0,4.4,2c2.16,0,7.48-2.15,5.59-5.12-1.47-2.31-4.68-1.81-6,.22a6.28,6.28,0,0,0-.11,6.71c2.11,3.05,7,2,9.35-.19,1.17-1.11-.6-2.87-1.77-1.77a6.06,6.06,0,0,1-3.52,1.36,2.61,2.61,0,0,1-1-.1,5,5,0,0,1-.63-.33,3.28,3.28,0,0,1-.68-3.12,4,4,0,0,1,.13-.46c.08-.25,0-.11.09-.25l.22-.41a.93.93,0,0,1,.19-.27,2.76,2.76,0,0,1,.3-.29c-.21.17.08-.05.16-.08s-.13,0,.16-.06-.2,0,0,0h.26c.24,0,0,0,0,0a.9.9,0,0,1,.22.06c.18.07.36.22.53.27.4.11-.07.16,0,0s-.12-.09,0-.13c-.13.05-.31.3-.43.39a6,6,0,0,1-.63.39,7.3,7.3,0,0,1-1.49.58,3.57,3.57,0,0,1-2.73-.29,2.5,2.5,0,0,1-.81-2.48A7.71,7.71,0,0,1,296,15.1a3.36,3.36,0,0,1,1-.68c.19-.08.31-.1.43,0,.42.49.52.93,0,1.34a6.64,6.64,0,0,1-5.5.85,2,2,0,0,1-.91-.52,1.39,1.39,0,0,1-.36-.8c0,.13,0-.37,0-.47a1.51,1.51,0,0,1,.06-.44,5,5,0,0,1,.42-1.22,6.4,6.4,0,0,1,4.55-3.62A1.28,1.28,0,0,0,297,8.33a1.26,1.26,0,0,0-1.25-1.25Z"/><path class="cls-4" d="M111.4,36l11.9,17.77L125,56.3a1.26,1.26,0,0,0,2.28-.3l5.32-19.17.76-2.74a1.26,1.26,0,0,0-2.42-.66l-5.31,19.16-.76,2.74,2.29-.3-11.9-17.76-1.69-2.52c-.89-1.33-3.06-.08-2.16,1.26Z"/><path class="cls-4" d="M164.24,23.75c5.31,5.17,11.13,9.86,16.86,14.54a1.27,1.27,0,0,0,2.14-.88l1-21.34.14-3.07c.08-1.61-2.42-1.6-2.5,0l-1,21.33-.14,3.08,2.13-.89C177.13,31.84,171.31,27.15,166,22c-1.15-1.12-2.92.64-1.77,1.77Z"/><g class="cls-9"><path class="cls-3" d="M146.52,27.09l-5,9.71-.7,1.36c-.73,1.43,1.43,2.7,2.16,1.26l5-9.71.7-1.35c.73-1.43-1.43-2.7-2.16-1.27Z"/><path class="cls-3" d="M153.73,24.69,146.3,40.61l-1.05,2.25c-.68,1.44,1.48,2.72,2.16,1.26l7.43-15.92,1-2.25c.67-1.45-1.48-2.72-2.16-1.26Z"/><path class="cls-3" d="M159.36,27l-8.24,17.4L150,46.9c-.68,1.44,1.47,2.71,2.16,1.26l8.25-17.4,1.16-2.45c.69-1.45-1.47-2.72-2.16-1.27Z"/></g><polyline class="cls-2" points="139 32.61 155.68 48.82 158.73 25.67"/><path class="cls-3" d="M138.12,33.5,152.7,47.66l2.1,2a1.26,1.26,0,0,0,2.13-.88l2.67-20.27.38-2.88c.21-1.59-2.3-1.57-2.5,0l-2.67,20.27-.38,2.88,2.14-.88L142,33.77l-2.1-2c-1.16-1.12-2.93.64-1.77,1.77Z"/><path class="cls-3" d="M104.39,35.63c11.37,2.34,23.42.35,34.52-2.52A159.73,159.73,0,0,0,172,20.71,95.06,95.06,0,0,0,189.56,9.13c1.24-1-.54-2.79-1.77-1.77-9.4,7.86-20.47,13.45-31.93,17.66-10.53,3.87-21.3,7.25-32.48,8.56a58.1,58.1,0,0,1-18.33-.36c-1.57-.33-2.24,2.08-.66,2.41Z"/><path class="cls-3" d="M139,21.33c3.56-3.41,7-7,10.39-10.52,1.12-1.16-.65-2.93-1.76-1.76-3.41,3.55-6.84,7.1-10.4,10.51-1.17,1.11.6,2.88,1.77,1.77Z"/><path class="cls-5" d="M133.6,18.59C134.89,13.43,137,8.5,138,3.26c.31-1.57-2.1-2.24-2.41-.66-1,5.23-3.15,10.16-4.44,15.32a1.25,1.25,0,0,0,2.41.67Z"/><path class="cls-4" d="M127.22,17c-.45-5.26-2.06-10.25-2.8-15.22"/><path class="cls-4" d="M128.47,17c-.47-5.27-2-10.34-2.84-15.55a1.25,1.25,0,0,0-1.54-.87,1.26,1.26,0,0,0-.87,1.53c.76,5,2.3,9.85,2.75,14.89.14,1.59,2.64,1.6,2.5,0Z"/><path class="cls-4" d="M89.5,30.45,92,35.85l.35.77a1.25,1.25,0,0,0,1.71.45,1.28,1.28,0,0,0,.45-1.71L92,30l-.35-.77A1.25,1.25,0,0,0,90,28.74a1.28,1.28,0,0,0-.45,1.71Z"/><g class="cls-10"><path class="cls-3" d="M81,26.61l5.09-8.8.73-1.26a1.25,1.25,0,0,0-2.16-1.26l-5.09,8.8-.73,1.26A1.25,1.25,0,0,0,81,26.61Z"/><path class="cls-3" d="M83,31l5.84-10.29.82-1.45A1.25,1.25,0,0,0,87.45,18L81.61,28.24l-.82,1.45A1.25,1.25,0,0,0,83,31Z"/><path class="cls-3" d="M85.58,34l5.33-9.39.75-1.33A1.25,1.25,0,0,0,89.5,22l-5.33,9.39-.75,1.33A1.25,1.25,0,0,0,85.58,34Z"/></g><path class="cls-2" d="M78.48,20l5.36,12.4,7.63-3.18c-2-4.73-5.89-12.47-5.89-12.47"/><path class="cls-3" d="M77.4,20.67,82.08,31.5l.68,1.57a1.25,1.25,0,0,0,1.41.58l7.64-3.18a1.28,1.28,0,0,0,.74-1.84c-1.8-4.23-3.83-8.36-5.89-12.47-.73-1.44-2.88-.17-2.16,1.26,2.06,4.11,4.09,8.24,5.89,12.47l.75-1.83-7.63,3.18,1.41.57L80.24,21l-.68-1.58A1.26,1.26,0,0,0,77.85,19a1.28,1.28,0,0,0-.45,1.71Z"/><path class="cls-3" d="M78.29,20.53a50.94,50.94,0,0,1,.94-10.09l-1.84.75a77.71,77.71,0,0,1,8.67,5.94V15a25.43,25.43,0,0,1-4.69,2.57,39.1,39.1,0,0,1-4.67,1.78c-1.53.47-.87,2.89.67,2.41a47.34,47.34,0,0,0,5.12-2,26,26,0,0,0,4.83-2.64,1.28,1.28,0,0,0,0-2.16A79.92,79.92,0,0,0,78.66,9a1.26,1.26,0,0,0-1.84.75,55.24,55.24,0,0,0-1,10.75,1.25,1.25,0,0,0,2.5,0Z"/><g class="cls-11"><path class="cls-4" d="M52.4,27.6l8,10.57,1.15,1.53a1.29,1.29,0,0,0,1.71.45,1.26,1.26,0,0,0,.45-1.71l-8-10.58-1.16-1.52a1.29,1.29,0,0,0-1.71-.45,1.26,1.26,0,0,0-.45,1.71Z"/><path class="cls-4" d="M45.55,36.37c5.3,7,10.72,14,16.19,20.91,1,1.26,2.75-.52,1.76-1.77q-8-10.12-15.8-20.41c-1-1.26-3.12,0-2.15,1.27Z"/><path class="cls-4" d="M37.44,43.32,49,58.94l1.63,2.19a1.28,1.28,0,0,0,1.71.45,1.26,1.26,0,0,0,.44-1.71L41.22,44.25l-1.63-2.2a1.29,1.29,0,0,0-1.71-.44,1.25,1.25,0,0,0-.44,1.71Z"/><path class="cls-4" d="M48.36,31.71l11.4,14.46,1.59,2a1.25,1.25,0,0,0,1.77,0,1.28,1.28,0,0,0,0-1.77L51.72,32l-1.6-2a1.26,1.26,0,0,0-1.76,0,1.28,1.28,0,0,0,0,1.77Z"/><path class="cls-4" d="M41.85,40.22l12.67,17,1.78,2.4c1,1.27,3.12,0,2.16-1.27l-12.67-17L44,39c-.95-1.27-3.12,0-2.16,1.27Z"/></g><path class="cls-1" d="M37.6,48.12C47.16,37.78,49.9,33.8,60,23.48,60.48,35.62,61.2,45.21,61,57c-7.14,1-19.12-1.26-23.44-8.85"/><path class="cls-4" d="M38.49,49c7.53-8.16,14.63-16.7,22.4-24.64l-2.13-.89c.44,11.17,1.17,22.31,1,33.49L61,55.72a29.27,29.27,0,0,1-12.13-1.07c-4-1.22-8-3.41-10.23-7.16a1.25,1.25,0,0,0-2.16,1.27c4.64,7.91,16,10.58,24.52,9.46A1.28,1.28,0,0,0,62.29,57c.14-11.18-.59-22.32-1-33.49a1.26,1.26,0,0,0-2.13-.88c-7.78,7.94-14.88,16.48-22.41,24.64-1.09,1.18.67,2.95,1.77,1.77Z"/><path class="cls-4" d="M60.61,17.93q-1.66,5-3.32,10a1.26,1.26,0,0,0,.87,1.54,1.28,1.28,0,0,0,1.54-.88q1.65-5,3.32-10a1.25,1.25,0,0,0-2.41-.67Z"/><path class="cls-4" d="M54.53,22.78,65,26.43a1.26,1.26,0,0,0,1.53-.87A1.27,1.27,0,0,0,65.69,24L55.2,20.36a1.26,1.26,0,0,0-.67,2.42Z"/><path class="cls-4" d="M56.6,18.55l4.62,9.24.65,1.31a1.25,1.25,0,0,0,1.71.45A1.27,1.27,0,0,0,64,27.84L59.41,18.6l-.65-1.32a1.25,1.25,0,0,0-2.16,1.27Z"/><path class="cls-4" d="M64.35,19.65a75.41,75.41,0,0,0-9.66,5.09A1.25,1.25,0,1,0,56,26.89a76.07,76.07,0,0,1,9.67-5.08,1.27,1.27,0,0,0,.45-1.71,1.31,1.31,0,0,0-1.72-.45Z"/><path class="cls-5" d="M479.52,6.22a12.28,12.28,0,0,0-9.17,6.61c-1.57,3-1.88,7.15,1.49,9.06s8.67,1.18,11.7-.9a4.1,4.1,0,0,0,1.68-5.24,3.81,3.81,0,0,0-4.62-2.4c-2,.59-3.51,2.34-4.71,3.93A14.27,14.27,0,0,0,473.27,22c-.56,2.16-.59,5,.71,6.9a7,7,0,0,0,6.07,2.61c2.64-.1,9.95-2.83,7.43-6.62-2-3-6.09-2.19-7.82.45a8.8,8.8,0,0,0-.53,8.34c1.73,3.5,5.76,3.64,9.05,2.54a10.12,10.12,0,0,0,4.06-2.2c1.17-1.11-.6-2.88-1.76-1.77-1.74,1.65-6.15,3.17-8.29,1.38-1.39-1.17-1.58-3.37-1.19-5a5.75,5.75,0,0,1,1.05-2.29,1.93,1.93,0,0,1,1.67-.83c.5,0,2,.5,1.57,1.17-.76,1.11-2.51,1.73-3.74,2.08a5.9,5.9,0,0,1-4.55-.35c-1.42-.82-1.62-2.45-1.54-3.95.15-2.9,2-5.61,4.09-7.54.63-.58,1.8-1.63,2.71-1.06a1.75,1.75,0,0,1,.07,2.95,10.43,10.43,0,0,1-8.48,1.26c-2.66-.86-2.5-3.65-1.44-5.77,1.34-2.7,4-5.19,7.11-5.56,1.58-.19,1.6-2.7,0-2.5Z"/></g></g></svg>