<svg xmlns="http://www.w3.org/2000/svg" xmlns:xlink="http://www.w3.org/1999/xlink" viewBox="0 0 84.84 88.08"><defs><style>.cls-1{fill:none;stroke:#035e97;stroke-miterlimit:10;}.cls-2{clip-path:url(#clip-path);}.cls-3{fill:#035e97;}.cls-4{fill:#b53e4b;}</style><clipPath id="clip-path" transform="translate(7.74)"><path class="cls-1" d="M21.37,1.88C-9.6,5.14-4,68.42,32.67,58.78c29.18-7.72,23-64.08-11.3-56.9"/></clipPath></defs><g id="Layer_2" data-name="Layer 2"><g id="OBJECTS"><g class="cls-2"><path class="cls-3" d="M0,12.7C.59,11.48,1.44,9.58,2.82,9A2.16,2.16,0,0,1,5,9.61c1.88,1.48,3.1,3.66,4.74,5.36a6.48,6.48,0,0,0,5.84,2.16c2-.44,3.4-2.18,4.55-3.76,1.26-1.75,2.36-3.75,4.08-5.11a5.32,5.32,0,0,1,5.94-.38C32,8.92,33.25,10.71,35,12a5.14,5.14,0,0,0,5.85.29,8.73,8.73,0,0,0,3.35-3.2,23.54,23.54,0,0,1,2.08-3.58,3.81,3.81,0,0,1,4.12-.92c1.82.58,2.76,2.44,3.37,4.1.55,1.5,3,.86,2.41-.66-1.22-3.32-3.29-6-7.05-6.14-3.21-.14-5,1.95-6.35,4.57-.93,1.79-2.94,4.87-5.41,4-1.83-.62-3.16-2.73-4.66-3.88A8.42,8.42,0,0,0,25.34,4.9c-2.36.66-4,2.52-5.44,4.42-1.21,1.65-2.27,3.84-4,5S12.22,14,11,12.7C9.26,10.7,7.74,8,5.23,6.83c-3.52-1.64-6,1.84-7.41,4.61C-2.9,12.87-.75,14.14,0,12.7Z" transform="translate(7.74)"/><path class="cls-3" d="M-4.44,23c.62-1.1,1.49-2.86,2.78-3.35.56-.21,1,.06,1.53.53C1.55,21.75,2.51,24,3.79,25.89a7.94,7.94,0,0,0,5.74,3.77,6.81,6.81,0,0,0,5.64-2.33,68.33,68.33,0,0,0,4.19-5.4c1.24-1.55,2.78-3.12,4.91-3,5,.18,6.72,7.19,11.89,7,3.52-.16,6.24-3.36,7.73-6.24a5.49,5.49,0,0,1,4-3.17,6.57,6.57,0,0,1,6.26,2c1.1,1.17,2.87-.6,1.77-1.77a9.21,9.21,0,0,0-11.08-1.79,7.62,7.62,0,0,0-3.09,3.43,10.54,10.54,0,0,1-3.06,3.82,4,4,0,0,1-3.37,1.1,6.65,6.65,0,0,1-2.75-1.91c-1.87-1.81-3.66-4-6.27-4.69-5.51-1.53-8.52,3.26-11.34,7.06-1.12,1.5-2.57,3.39-4.61,3.47-2.41.09-3.82-1.69-5-3.51C4,21.61,2.73,18.77.44,17.55c-3.2-1.71-5.69,1.82-7,4.22A1.25,1.25,0,0,0-4.44,23Z" transform="translate(7.74)"/><path class="cls-3" d="M-5.57,36.85c1.68-1.5,3.8-3,6.13-2.17,1.81.6,3.28,2,4.8,3.15A9.82,9.82,0,0,0,11.13,40a9.76,9.76,0,0,0,6.62-3c1.68-1.67,2.86-3.78,4.53-5.46s3.25-1.48,5.09-.14c2.43,1.76,4,4.17,5.94,6.39,1.48,1.7,3.38,2.47,5.46,1.28a17.56,17.56,0,0,0,4.1-4A44.35,44.35,0,0,1,47,30.81a10.32,10.32,0,0,1,5-2.7c2.19-.31,3.89,1,5.24,2.6,1.06,1.22,2.82-.55,1.77-1.77-2.47-2.87-5.86-4.2-9.48-2.69-3.31,1.39-5.85,4.21-8.2,6.82-1.16,1.3-3.67,5.42-5.67,3.55a24.81,24.81,0,0,1-2.35-2.86A24.28,24.28,0,0,0,30,30.29C28,28.6,25.46,27,22.8,28.13c-2.15.9-3.51,3-4.88,4.82-1.52,2-3.24,3.93-5.8,4.47-2.08.43-3.87-.56-5.5-1.74C4.79,34.35,3,32.69.78,32.14c-3.11-.75-5.88.94-8.12,2.94-1.2,1.08.57,2.84,1.77,1.77Z" transform="translate(7.74)"/><path class="cls-3" d="M-.76,47.87C.86,46.34,2.76,45.05,5,46c1.86.76,3.38,2.18,5.22,3a8,8,0,0,0,6.38.23A11.12,11.12,0,0,0,21,45.26c.78-1,1.71-2.8,3.12-3.09,1.92-.38,4.2,1.89,5.38,3.12s2.33,3.09,4,4c2,1.11,4.28.37,6.19-.61,2.81-1.45,5-3.6,7.47-5.47a8.15,8.15,0,0,1,3.68-1.83c1.6-.19,2.77,1,3.62,2.21s3.08.06,2.16-1.26c-1.65-2.35-4-4-6.93-3.27-2.63.67-4.75,2.72-6.77,4.41a25,25,0,0,1-3.63,2.57,7.2,7.2,0,0,1-3.63,1.33c-1.69-.09-2.83-2.14-3.83-3.27C29,41,24.31,37.62,20.74,41.5,19.43,42.94,18.52,44.72,17,46a5.27,5.27,0,0,1-5.66.75c-2.15-.91-3.86-2.64-6.12-3.35-3-.93-5.67.68-7.79,2.69-1.17,1.11.6,2.87,1.77,1.77Z" transform="translate(7.74)"/><path class="cls-3" d="M3.25,58.39c1.71-1.14,3.36-1.68,5.29-.82A33.8,33.8,0,0,0,13,59.69c4.06,1.17,7-1.35,9.39-4.31,1-1.32,2.15-2.82,3.74-3.52a5.33,5.33,0,0,1,5.14.65c3.26,2.06,6.44,5.48,10.66,3.72,2-.81,3.47-2.32,5.23-3.45,2-1.28,3.54-1.2,5.25.5a1.25,1.25,0,0,0,1.77-1.77c-1.55-1.54-3.5-2.58-5.72-2.06a13.42,13.42,0,0,0-4.77,2.78c-1.49,1.11-3.06,2.31-5,1.88s-3.65-2-5.31-3.2A8.69,8.69,0,0,0,27.59,49a8,8,0,0,0-5.1,2.42c-2.44,2.4-4.45,7-8.62,6-1.88-.47-3.4-1.81-5.23-2.42A7.55,7.55,0,0,0,2,56.23c-1.33.9-.08,3.06,1.26,2.16Z" transform="translate(7.74)"/></g><path class="cls-1" d="M21.37,1.88C-9.6,5.14-4,68.42,32.67,58.78c29.18-7.72,23-64.08-11.3-56.9" transform="translate(7.74)"/><path class="cls-3" d="M21.37.63A21.62,21.62,0,0,0,7,8.1,30.57,30.57,0,0,0,.5,23.2c-1.72,11,.89,24,9.36,31.81,9.06,8.37,24,7.73,33.07-.37S54.2,32.53,51.37,21.12A30.33,30.33,0,0,0,42.81,6,23.11,23.11,0,0,0,26.35,0,31.74,31.74,0,0,0,21,.68c-1.58.32-.91,2.73.66,2.41,5.71-1.18,11.68-.61,16.66,2.59A24.64,24.64,0,0,1,47.79,18c3.8,10.17,3,23.08-3.81,31.84S23.51,61.44,14.13,55.22c-8.75-5.81-12-17.51-11.59-27.5C3,17.94,7.52,7.06,17.6,3.92a20.22,20.22,0,0,1,3.77-.79C23,3,23,.45,21.37.63Z" transform="translate(7.74)"/><path class="cls-3" d="M21.2,59.46A40,40,0,0,1,17.25,69,1.26,1.26,0,0,0,18,70.8a9.31,9.31,0,0,0,2.26.54c1.11.17,2.22.29,3.33.35a24.83,24.83,0,0,0,3.11,0,7.73,7.73,0,0,0,2.48-.42A1.28,1.28,0,0,0,30,69.75c-.6-3.17-1.68-6.26-2-9.48A1.29,1.29,0,0,0,26.8,59a1.26,1.26,0,0,0-1.25,1.25C25.89,63.73,27,67,27.63,70.41l.88-1.54a4.92,4.92,0,0,1-.91.25c-.05,0-.37,0-.05,0l-.31,0-.66,0a25,25,0,0,1-3,0c-.51,0-1-.07-1.52-.12L21.3,69l-.15,0-.35-.06a9.29,9.29,0,0,1-2.14-.52l.74,1.84a42.06,42.06,0,0,0,4.21-10.11,1.25,1.25,0,0,0-2.41-.66Z" transform="translate(7.74)"/><path class="cls-4" d="M49,29.52c-28.31,8.73-7.75,60.65,13.81,45.65C87.54,58,73.87,20.41,49,29.52" transform="translate(7.74)"/><path class="cls-4" d="M48.65,28.32a20.33,20.33,0,0,0-11.2,8.25,24.26,24.26,0,0,0-3.53,12.79c-.13,8.87,3.31,18.57,9.8,24.77a16.82,16.82,0,0,0,10.33,5c4.84.32,9.05-2.27,12.57-5.34,8.79-7.7,12.76-20.14,9.16-31.39A23.46,23.46,0,0,0,67.3,30.31a19.18,19.18,0,0,0-14.36-3.13,24.44,24.44,0,0,0-4.29,1.14c-1.5.54-.85,3,.67,2.41,4.54-1.63,9.57-2,14,.14a19.26,19.26,0,0,1,8.91,9.34c4.43,9.34,2.39,20.87-4.27,28.62-2.95,3.43-7,7.06-11.68,7.7a12.54,12.54,0,0,1-9.23-2.79c-6.33-4.82-9.85-13.4-10.54-21.14-.73-8.18,1.93-16.69,9.64-20.62a20.75,20.75,0,0,1,3.14-1.25c1.53-.48.87-2.9-.67-2.41Z" transform="translate(7.74)"/><path class="cls-4" d="M51.61,77.32c-1.53,2.56-1.87,5.55-3.14,8.2-.31.65-.12,1.71.75,1.84a35.28,35.28,0,0,0,10.7.48c.72-.11,1-.94.87-1.54-.46-2.86-2-5.47-2.3-8.34a1.28,1.28,0,0,0-1.25-1.25A1.25,1.25,0,0,0,56,78c.36,3.12,1.9,5.92,2.39,9l.88-1.54A32.3,32.3,0,0,1,49.88,85l.75,1.83c1.27-2.64,1.62-5.66,3.13-8.19a1.25,1.25,0,0,0-2.15-1.27Z" transform="translate(7.74)"/><path class="cls-4" d="M64.26,35.39a6.51,6.51,0,0,0-4,1.37,5.1,5.1,0,0,0-1.71,2.89,6.56,6.56,0,0,0,2.52,6.53,6,6,0,0,0,7.17.13,6.57,6.57,0,0,0,2-6.21,5.66,5.66,0,0,0-1.75-3.27,5.94,5.94,0,0,0-4.22-1.44A1.28,1.28,0,0,0,63,36.64a1.26,1.26,0,0,0,1.25,1.25c.27,0,.54,0,.81,0s-.19,0,0,0l.18,0,.39.09.33.11c.2.06,0,0-.07,0l.15.07c.22.11.41.25.62.37-.29-.17,0,0,0,0a2.28,2.28,0,0,1,.22.22c.08.07.14.15.21.22s-.09-.18,0,0,.08.11.11.16a3.88,3.88,0,0,1,.3.52c.16.3,0-.14,0,.06s.09.23.12.36a5.66,5.66,0,0,1,.15.59c0,.16,0,.32,0,.06,0,.12,0,.25,0,.38s0,.42,0,.62l0,.31c0,.22,0-.08,0-.1a1.85,1.85,0,0,0,0,.23,5.66,5.66,0,0,1-.15.59l-.09.29-.06.15c-.08.25.14-.26,0,0s-.18.36-.28.53l-.17.24c-.1.18,0-.05.07-.07S67,44,67,44.05s-.28.26-.42.4.22-.14,0,0l-.31.19L66,44.8c.23-.12.1,0,0,0l-.29.08-.15,0c-.26.07.29,0,0,0s-.47,0-.7,0l-.4,0c-.06,0-.24,0,0,0l-.28-.05a4.72,4.72,0,0,1-.71-.2c-.09,0-.39-.19-.11,0l-.39-.2c-.2-.11-.38-.24-.57-.37.23.16,0,0-.07-.07a3.07,3.07,0,0,1-.26-.25l-.25-.27-.11-.13s.17.24.05.06-.25-.38-.36-.58-.11-.22-.16-.32.08.24,0-.07-.14-.43-.2-.65l-.06-.3c-.06-.3,0,.26,0-.1a4.71,4.71,0,0,1,0-.65c0-.11,0-.23,0-.34,0,.37,0,0,0-.12s.17-.46.21-.69-.13.21,0,.1a.65.65,0,0,0,.08-.17l.19-.33.09-.12c.13-.23-.19.2,0,0s.15-.18.23-.26l.26-.24c.15-.14,0,0-.07.05l.2-.14.37-.21.15-.07c.2-.11-.16,0,0,0s.56-.18.86-.24l.19,0c.33-.06-.26,0,.08,0l.54,0a1.25,1.25,0,0,0,0-2.5Z" transform="translate(7.74)"/><path class="cls-4" d="M68.06,47.87a4.38,4.38,0,0,0-2.76,1,3.51,3.51,0,0,0-1.16,1.95,4.46,4.46,0,0,0,1.75,4.48,4.35,4.35,0,0,0,2.43.82,3.6,3.6,0,0,0,2.48-.82,4.48,4.48,0,0,0,1.33-4.21A3.94,3.94,0,0,0,71,48.87a4.06,4.06,0,0,0-2.89-1,1.25,1.25,0,0,0,0,2.5,4,4,0,0,1,.49,0c.18,0-.36-.07,0,0l.23,0,.2.07c.17,0-.16-.07-.16-.07l.09,0,.37.22c-.32-.19-.17-.14-.07,0l.13.13.12.14c.14.14-.16-.25-.09-.13a.47.47,0,0,0,.06.09,3.3,3.3,0,0,1,.18.32c.12.23-.09-.27,0-.09s0,.14.07.22a1.9,1.9,0,0,1,.09.36s0,.06,0,.09,0-.21,0-.2,0,.18,0,.23,0,.25,0,.38,0,.12,0,.18,0-.21,0-.19a.34.34,0,0,1,0,.14,2,2,0,0,1-.09.35,1.21,1.21,0,0,1,0,.18l0,.08c-.06.19.15-.3.06-.13l-.17.32-.1.14c-.09.15.12-.17.12-.14l-.09.1-.24.24c-.1.1.29-.2.08-.06s-.12.08-.19.11-.12.09-.16.08.35-.12.18-.08l-.09,0-.17,0-.09,0c-.19,0,.35,0,.14,0a2.81,2.81,0,0,1-.41,0h-.24c-.1,0-.21-.06.15,0l-.16,0-.43-.11c-.13-.05-.27-.17.05,0l-.23-.11a3.26,3.26,0,0,0-.34-.22l.13.1-.07-.07L67.09,53a1.22,1.22,0,0,1-.15-.17l-.07-.07s.21.28.11.14l-.22-.35-.09-.2c-.09-.17.12.34,0,.08s-.09-.25-.12-.38l0-.19c0-.24,0,.36,0,.08a2.54,2.54,0,0,1,0-.39c0-.07,0-.14,0-.21,0,.42,0,.21,0,.06s.08-.27.12-.41-.14.29-.07.18l0-.11.11-.19a.35.35,0,0,0,0-.08c.1-.16-.21.25-.08.11l.14-.15.15-.14c.13-.12-.14.1-.14.1a.5.5,0,0,0,.12-.08l.22-.13.09,0c.17-.09-.26.09-.13,0s.34-.11.52-.15l.11,0c.23,0-.33,0-.08,0l.32,0a1.25,1.25,0,0,0,0-2.5Z" transform="translate(7.74)"/></g></g></svg>